<svg width="162" height="65" viewBox="0 0 162 65" fill="none" xmlns="http://www.w3.org/2000/svg">
<path d="M55.8064 40.4178C53.6365 40.4178 51.7059 39.9484 50.0145 39.0097C48.3552 38.1031 46.9712 36.7658 46.008 35.1387C45.0295 33.4989 44.5403 31.6344 44.5403 29.5452C44.5403 27.429 45.0295 25.5581 46.008 23.9323C46.9693 22.3203 48.3486 20.9984 50 20.1065C51.6914 19.1817 53.622 18.7194 55.7919 18.7194C57.9854 18.7194 59.9354 19.1817 61.6419 20.1065C63.2993 20.9872 64.6846 22.3039 65.6483 23.9145C66.6161 25.5274 67.1 27.4054 67.1 29.5484C67.1 31.6376 66.6161 33.5022 65.6483 35.1419C64.6919 36.7743 63.3062 38.1131 61.6419 39.0129C59.9397 39.9495 57.9946 40.4178 55.8064 40.4178ZM55.8064 36.1726C56.9406 36.1927 58.0606 35.9193 59.058 35.379C60.0098 34.8456 60.7855 34.0463 61.2903 33.079C61.8279 32.0747 62.0967 30.8979 62.0967 29.5484C62.0967 28.1742 61.8279 26.9914 61.2903 26C60.7798 25.0367 60.0018 24.2413 59.05 23.7097C58.0546 23.1884 56.9477 22.9161 55.8242 22.9161C54.7006 22.9161 53.5937 23.1884 52.5983 23.7097C51.6521 24.2455 50.8753 25.0363 50.3564 25.9919C49.8016 26.9833 49.5242 28.1661 49.5242 29.5403C49.5242 30.8887 49.8016 32.0656 50.3564 33.071C50.8708 34.0345 51.6483 34.8321 52.5983 35.371C53.5788 35.9152 54.6852 36.1916 55.8064 36.1726Z" fill="#54AF47"/>
<path d="M80.9677 40.4178C78.7451 40.4178 76.7682 39.9484 75.037 39.0097C73.3527 38.1161 71.9462 36.7771 70.9709 35.1388C69.9924 33.499 69.5032 31.6345 69.5032 29.5452C69.5032 27.4291 69.9924 25.5581 70.9709 23.9323C71.948 22.306 73.355 20.981 75.037 20.1033C76.7693 19.1786 78.7462 18.7162 80.9677 18.7162C83.0301 18.7162 84.8478 19.1323 86.4209 19.9646C87.9752 20.7778 89.232 22.0623 90.0112 23.6339L86.2032 25.8565C85.6426 24.9211 84.841 24.1534 83.8822 23.6339C82.9703 23.1583 81.9558 22.9135 80.9274 22.921C79.7823 22.9037 78.6513 23.175 77.6387 23.7097C76.6674 24.2326 75.8681 25.0252 75.337 25.992C74.7822 26.9834 74.5048 28.1662 74.5048 29.5404C74.5048 30.9146 74.7822 32.0974 75.337 33.0888C75.8677 34.0555 76.6671 34.8476 77.6387 35.3694C78.6516 35.907 79.7839 36.18 80.9306 36.163C81.9592 36.1707 82.974 35.9253 83.8854 35.4484C84.8442 34.9296 85.6458 34.1625 86.2064 33.2275L90.0145 35.4484C89.2209 37.0098 87.9678 38.2904 86.4241 39.1178C84.8521 39.9834 83.0333 40.4167 80.9677 40.4178Z" fill="#54AF47"/>
<path d="M91.9113 23.0822V19.1161H106.034V23.0822H91.9113ZM102.702 40.4177C100.375 40.4177 98.5763 39.8161 97.3064 38.6129C96.0365 37.4096 95.4021 35.6311 95.4032 33.2774V14.2758H100.361V33.158C100.361 34.1623 100.619 34.9424 101.135 35.4983C101.652 36.0543 102.372 36.3317 103.297 36.3306C104.409 36.3306 105.334 36.0397 106.074 35.458L107.461 38.9887C106.83 39.4902 106.102 39.8549 105.323 40.0596C104.47 40.2993 103.588 40.4198 102.702 40.4177Z" fill="#54AF47"/>
<path d="M119.652 40.4178C117.484 40.4178 115.553 39.9484 113.86 39.0097C112.201 38.1022 110.817 36.7651 109.853 35.1387C108.876 33.5011 108.387 31.6376 108.387 29.5484C108.387 27.4323 108.876 25.5613 109.855 23.9355C110.82 22.3211 112.205 20.998 113.861 20.1065C115.555 19.1817 117.485 18.7194 119.653 18.7194C121.849 18.7194 123.799 19.1817 125.505 20.1065C127.164 20.9869 128.551 22.3036 129.516 23.9145C130.484 25.5274 130.968 27.4054 130.968 29.5484C130.968 31.6376 130.484 33.5022 129.516 35.1419C128.559 36.7739 127.174 38.1127 125.51 39.0129C123.799 39.9495 121.846 40.4178 119.652 40.4178ZM119.652 36.1726C120.786 36.1926 121.906 35.9192 122.903 35.379C123.858 34.8469 124.637 34.0476 125.144 33.079C125.681 32.0747 125.953 30.8979 125.958 29.5484C125.958 28.1742 125.687 26.9914 125.144 26C124.633 25.0365 123.855 24.2411 122.903 23.7097C121.908 23.1887 120.801 22.9165 119.677 22.9165C118.554 22.9165 117.447 23.1887 116.452 23.7097C115.506 24.2464 114.73 25.0369 114.211 25.9919C113.655 26.9833 113.377 28.1661 113.377 29.5403C113.377 30.8887 113.655 32.0656 114.211 33.071C114.724 34.037 115.501 34.8374 116.452 35.379C117.43 35.9189 118.534 36.1925 119.652 36.1726Z" fill="#54AF47"/>
<path d="M134.129 40.1387V18.9565H138.85V24.7887L138.294 23.0823C138.896 21.69 139.952 20.543 141.29 19.829C142.652 19.0893 144.351 18.7194 146.387 18.7194V23.4387C146.192 23.3892 145.993 23.3563 145.792 23.3403C145.608 23.3274 145.423 23.321 145.237 23.321C143.36 23.321 141.866 23.8694 140.755 24.9661C139.644 26.0629 139.089 27.6962 139.089 29.8661V40.1387H134.129Z" fill="#54AF47"/>
<path d="M42.0758 15.8484V8.04517H45.7323C46.6677 8.04517 47.3812 8.22903 47.8726 8.59678C48.1069 8.76349 48.2966 8.98534 48.4248 9.24272C48.5531 9.50011 48.616 9.78512 48.6081 10.0726C48.6197 10.4484 48.5186 10.8192 48.3177 11.1371C48.126 11.4298 47.8584 11.665 47.5435 11.8177C47.2159 11.9786 46.8553 12.0609 46.4903 12.0581L46.6903 11.6565C47.0972 11.6494 47.5007 11.7314 47.8726 11.8968C48.2089 12.0464 48.4967 12.2872 48.7032 12.5919C48.9166 12.9319 49.0234 13.3279 49.0097 13.729C49.0224 14.0329 48.9586 14.3351 48.8242 14.6079C48.6898 14.8806 48.489 15.1153 48.2403 15.2903C47.7274 15.6624 46.9656 15.8484 45.9548 15.8484H42.0758ZM43.5274 14.7113H45.8694C46.4113 14.7113 46.8274 14.621 47.1177 14.4435C47.2521 14.345 47.3613 14.2161 47.4366 14.0675C47.5119 13.9188 47.5512 13.7545 47.5512 13.5879C47.5512 13.4213 47.5119 13.257 47.4366 13.1083C47.3613 12.9597 47.2521 12.8308 47.1177 12.7323C46.8274 12.5505 46.4113 12.4597 45.8694 12.4597H43.4129V11.3306H45.5758C46.0801 11.3306 46.4683 11.2419 46.7403 11.0645C46.8658 10.9708 46.9677 10.8491 47.0379 10.7091C47.1081 10.5691 47.1446 10.4147 47.1446 10.2581C47.1446 10.1015 47.1081 9.94701 47.0379 9.807C46.9677 9.667 46.8658 9.54532 46.7403 9.45162C46.4694 9.27312 46.0812 9.18388 45.5758 9.18388H43.5242L43.5274 14.7113Z" fill="#196935"/>
<path d="M53.7596 15.9677C53.1844 15.9743 52.613 15.8719 52.0758 15.6661C51.579 15.4761 51.1247 15.19 50.7387 14.8242C50.3607 14.4658 50.0608 14.033 49.858 13.5532C49.4409 12.5279 49.4409 11.3802 49.858 10.3548C50.0608 9.87502 50.3607 9.4423 50.7387 9.08387C51.1247 8.71803 51.579 8.43192 52.0758 8.24194C53.1562 7.83976 54.3453 7.83976 55.4258 8.24194C55.9205 8.43312 56.373 8.71913 56.758 9.08387C57.136 9.4423 57.4359 9.87502 57.6387 10.3548C57.8503 10.8614 57.9562 11.4059 57.95 11.9548C57.9559 12.5053 57.85 13.0513 57.6387 13.5597C57.4377 14.0405 57.1376 14.4736 56.758 14.8306C56.3715 15.1918 55.9192 15.4754 55.4258 15.6661C54.8946 15.8715 54.3291 15.9738 53.7596 15.9677ZM53.7484 14.6968C54.1217 14.7 54.4923 14.6321 54.8403 14.4968C55.1667 14.3677 55.4628 14.1722 55.7096 13.9226C55.9555 13.672 56.1504 13.3763 56.2838 13.0516C56.5591 12.3458 56.5591 11.5623 56.2838 10.8565C56.1508 10.5321 55.9558 10.2368 55.7096 9.9871C55.4632 9.737 55.1671 9.54138 54.8403 9.4129C54.4927 9.27607 54.1219 9.20761 53.7484 9.21129C53.3763 9.2073 53.0071 9.27578 52.6613 9.4129C52.3353 9.54296 52.0395 9.73837 51.7919 9.9871C51.5422 10.2352 51.3448 10.5308 51.2113 10.8565C50.936 11.5606 50.936 12.3426 51.2113 13.0468C51.3438 13.3733 51.5389 13.6708 51.7855 13.9226C52.0323 14.1722 52.3284 14.3677 52.6548 14.4968C53.0039 14.6294 53.375 14.6945 53.7484 14.6887V14.6968Z" fill="#196935"/>
<path d="M62.8774 15.9677C62.3022 15.9743 61.7308 15.8719 61.1936 15.6661C60.6968 15.4761 60.2425 15.19 59.8565 14.8242C59.4785 14.4658 59.1786 14.033 58.9758 13.5532C58.5587 12.5279 58.5587 11.3802 58.9758 10.3548C59.1786 9.87502 59.4785 9.4423 59.8565 9.08387C60.2425 8.71803 60.6968 8.43192 61.1936 8.24194C62.274 7.83976 63.4631 7.83976 64.5436 8.24194C65.0384 8.43275 65.4911 8.7188 65.8758 9.08387C66.2538 9.4423 66.5537 9.87502 66.7565 10.3548C66.9686 10.8613 67.0751 11.4058 67.0694 11.9548C67.0748 12.5054 66.9683 13.0514 66.7565 13.5597C66.5555 14.0405 66.2554 14.4736 65.8758 14.8306C65.4895 15.1921 65.0372 15.4758 64.5436 15.6661C64.0124 15.8716 63.4469 15.974 62.8774 15.9677ZM62.8661 14.6968C63.2395 14.7 63.6101 14.6321 63.9581 14.4968C64.2848 14.3681 64.5809 14.1725 64.8274 13.9226C65.0733 13.672 65.2682 13.3763 65.4016 13.0516C65.6769 12.3458 65.6769 11.5623 65.4016 10.8565C65.2686 10.5321 65.0736 10.2368 64.8274 9.9871C64.5813 9.73662 64.2851 9.54095 63.9581 9.4129C63.6105 9.27607 63.2397 9.20761 62.8661 9.21129C62.4941 9.20746 62.1249 9.27594 61.7791 9.4129C61.4531 9.54296 61.1573 9.73837 60.9097 9.9871C60.6611 10.2357 60.4642 10.5312 60.3307 10.8565C60.0554 11.5606 60.0554 12.3426 60.3307 13.0468C60.4626 13.3736 60.6577 13.6712 60.9049 13.9226C61.1514 14.1725 61.4475 14.3681 61.7742 14.4968C62.1227 14.6294 62.4933 14.6945 62.8661 14.6887V14.6968Z" fill="#196935"/>
<path d="M67.9904 15.8484V8.04517H69.442V15.8484H67.9904ZM69.2807 14.0081L69.2016 12.2919L73.2936 8.04517H74.921L71.521 11.6565L70.7145 12.5371L69.2807 14.0081ZM73.4275 15.8484L70.4404 12.2919L71.3984 11.2323L75.121 15.8484H73.4275Z" fill="#196935"/>
<path d="M78.121 15.8484V8.04517H79.3145L82.7242 13.7403H82.0968L85.4532 8.04517H86.6452L86.6565 15.8484H85.2855L85.2742 10.2032H85.5645L82.7113 14.9629H82.0661L79.1629 10.2032H79.4968V15.8484H78.121Z" fill="#196935"/>
<path d="M90.4161 15.8484V12.7597L90.7387 13.6516L87.3516 8.04517H88.9016L91.6209 12.5613H90.7516L93.4935 8.04517H94.9193L91.5322 13.6516L91.8677 12.7597V15.8484H90.4161Z" fill="#196935"/>
<path d="M33.2355 7.83227C33.0182 7.68584 32.7613 7.60964 32.4994 7.61397C32.2375 7.6183 31.9832 7.70294 31.7709 7.85646C30.6419 7.43066 29.5822 7.33066 28.6435 7.5613C27.4548 7.85324 26.5193 8.65646 25.858 9.95485C25.2021 11.2636 24.7082 12.6475 24.3871 14.0758L24.3048 14.4548L24.6855 14.379C24.9076 14.3329 25.1391 14.3751 25.3306 14.4968L25.6371 14.6887L25.7145 14.3355C26.0128 13.026 26.4677 11.7572 27.0693 10.5565C27.5403 9.63388 28.179 9.06776 28.9661 8.87259C29.7532 8.67743 30.629 8.87259 31.2548 9.10485C31.283 9.27955 31.3467 9.44659 31.4422 9.59559C31.5376 9.74459 31.6627 9.87237 31.8096 9.97098C32.0937 10.1599 32.441 10.2286 32.7756 10.1621C33.1102 10.0956 33.4049 9.8993 33.5951 9.61614C33.7834 9.332 33.8515 8.98493 33.7847 8.65071C33.718 8.31648 33.5216 8.02225 33.2387 7.83227H33.2355Z" fill="#1A6936"/>
<path d="M72.8774 44.8532C72.3495 44.8533 71.8381 45.0369 71.4309 45.3727C71.0236 45.7084 70.7458 46.1754 70.6451 46.6936C67.4774 46.7532 45.1322 47.1355 37.3596 46.0758C31.4048 45.2694 27.4386 43.0113 25.5709 39.3919C22.4096 33.2532 26.1177 24.8178 26.9386 23.1016C27.6586 23.4865 28.4643 23.6829 29.2806 23.6726C29.6511 23.6716 30.0209 23.6376 30.3854 23.571C31.3755 23.3878 32.3348 23.0663 33.2354 22.6161C33.4935 22.4887 33.7499 22.3532 33.9967 22.2097C34.187 22.1025 34.331 21.9287 34.401 21.7218C34.4709 21.5149 34.4619 21.2894 34.3757 21.0887C34.3257 20.9791 34.2532 20.8812 34.163 20.8012C34.0728 20.7213 33.9668 20.6612 33.8519 20.6247C33.737 20.5883 33.6158 20.5763 33.496 20.5895C33.3762 20.6028 33.2605 20.641 33.1564 20.7016C32.9177 20.8403 32.6725 20.971 32.429 21.0887C31.6863 21.4559 30.8966 21.7191 30.0822 21.871C29.0844 22.0515 28.0555 21.8371 27.2128 21.2731C26.3701 20.7091 25.7796 19.8397 25.5661 18.8484C25.3949 18.0366 25.3357 17.2053 25.3903 16.3774C25.4064 16.1065 25.4338 15.8339 25.4693 15.571C25.4967 15.3969 25.4699 15.2186 25.3926 15.0602C25.3153 14.9018 25.1912 14.771 25.037 14.6855C24.9117 14.6177 24.7718 14.5815 24.6294 14.5798C24.4869 14.5781 24.3462 14.611 24.2193 14.6758C24.0969 14.7389 23.9915 14.8304 23.9118 14.9427C23.8321 15.0549 23.7805 15.1847 23.7612 15.321C23.7193 15.621 23.6903 15.9274 23.6709 16.229C23.5984 17.2287 23.6657 18.2335 23.8709 19.2145C24.0677 20.1113 24.529 21.3484 25.6064 22.2065C24.9112 23.5887 20.4757 32.9581 24.1548 40.1097C26.2709 44.2242 30.6403 46.7581 37.1403 47.6436C40.079 48.0436 45.3177 48.2468 52.7128 48.2468C60.3612 48.2468 68.0467 47.7726 70.6499 47.6097C70.7418 48.0283 70.9502 48.4125 71.251 48.7178C71.5519 49.023 71.9329 49.237 72.3502 49.335C72.7674 49.433 73.2039 49.411 73.6092 49.2715C74.0145 49.132 74.372 48.8808 74.6406 48.5468C74.9093 48.2128 75.0779 47.8097 75.1272 47.3839C75.1765 46.9581 75.1044 46.5271 74.9192 46.1406C74.734 45.754 74.4432 45.4278 74.0805 45.1994C73.7178 44.9711 73.2979 44.8499 72.8693 44.85L72.8774 44.8532Z" fill="#54AF47"/>
<path d="M72.8774 48.3646C73.5606 48.3646 74.1145 47.8107 74.1145 47.1275C74.1145 46.4442 73.5606 45.8904 72.8774 45.8904C72.1941 45.8904 71.6403 46.4442 71.6403 47.1275C71.6403 47.8107 72.1941 48.3646 72.8774 48.3646Z" fill="white"/>
<path d="M72.8775 47.9162C73.313 47.9162 73.6662 47.563 73.6662 47.1275C73.6662 46.6919 73.313 46.3387 72.8775 46.3387C72.4419 46.3387 72.0887 46.6919 72.0887 47.1275C72.0887 47.563 72.4419 47.9162 72.8775 47.9162Z" fill="#54AF47"/>
<path d="M72.8775 47.4178C73.0378 47.4178 73.1678 47.2878 73.1678 47.1275C73.1678 46.9671 73.0378 46.8372 72.8775 46.8372C72.7171 46.8372 72.5872 46.9671 72.5872 47.1275C72.5872 47.2878 72.7171 47.4178 72.8775 47.4178Z" fill="white"/>
<path d="M40.2919 18.9564C39.0046 16.8779 37.1607 15.2017 34.9693 14.1177C32.6951 12.9532 30.0505 12.3715 27.0354 12.3726H14.9048V40.1403H27.0419C30.058 40.1403 32.7026 39.558 34.9757 38.3935C37.171 37.3063 39.0157 35.6226 40.2983 33.5355C41.5682 31.4591 42.2026 29.0328 42.2016 26.2564C42.1973 23.4532 41.5607 21.0199 40.2919 18.9564ZM35.7499 31.2532C34.918 32.6804 33.6922 33.8374 32.2193 34.5855C30.6989 35.379 28.894 35.7758 26.8048 35.7758H20.0612V16.7435H26.8048C28.893 16.7435 30.6978 17.1403 32.2193 17.9339C33.6878 18.6784 34.9129 19.8273 35.7499 21.2451C36.5822 22.6613 36.9989 24.3344 36.9999 26.2645C36.9999 28.1623 36.5833 29.8252 35.7499 31.2532Z" fill="#54AF47"/>
<path d="M39.4935 14.8081C39.3483 13.8533 38.8483 12.9194 38.0241 12.0323C38.0887 11.7589 38.0623 11.4719 37.9489 11.2148C37.8355 10.9578 37.6414 10.7448 37.3959 10.6082C37.1504 10.4715 36.867 10.4188 36.5888 10.4579C36.3106 10.497 36.0528 10.6258 35.8544 10.8248C35.6561 11.0238 35.5282 11.282 35.49 11.5604C35.4519 11.8387 35.5056 12.1219 35.643 12.3669C35.7805 12.6119 35.9941 12.8054 36.2516 12.9179C36.509 13.0305 36.7961 13.0559 37.0693 12.9904C37.6919 13.6662 38.058 14.3468 38.1612 15.0162C38.2822 15.8226 37.9999 16.6291 37.3338 17.4113C36.4533 18.4282 35.453 19.3348 34.3548 20.1113L34.0645 20.3226L34.3564 20.5323C34.5406 20.663 34.6667 20.8603 34.708 21.0823L34.7822 21.4662L35.1048 21.2436C36.3051 20.3975 37.3976 19.4079 38.358 18.2968C39.2967 17.1904 39.6774 16.0178 39.4935 14.8081Z" fill="#1A6936"/>
<path d="M146.345 45.8725C146.395 45.6733 146.398 45.4655 146.355 45.2647C146.312 45.064 146.225 44.8756 146.098 44.7138C145.972 44.552 145.81 44.4211 145.626 44.331C145.442 44.2408 145.239 44.1938 145.034 44.1935L132.381 44.1838C132.351 44.1838 132.321 44.1898 132.293 44.2015C132.265 44.2131 132.24 44.2302 132.219 44.2517C132.198 44.2732 132.182 44.2986 132.171 44.3266C132.159 44.3545 132.154 44.3844 132.155 44.4145V45.7048C132.155 45.7924 132.139 45.8794 132.108 45.9613C132.104 45.9715 132.102 45.9825 132.102 45.9935C132.103 46.0045 132.105 46.0153 132.11 46.0253C132.115 46.0353 132.121 46.0442 132.13 46.0515C132.138 46.0588 132.148 46.0643 132.158 46.0677L132.358 46.1371C132.374 46.1433 132.392 46.144 132.409 46.1391C132.426 46.1341 132.441 46.1238 132.452 46.1096L132.534 46.0016L132.966 45.429C133.034 45.3395 133.122 45.2673 133.224 45.218C133.325 45.1687 133.436 45.1437 133.548 45.1451C133.603 45.1442 133.657 45.1496 133.71 45.1613C133.804 45.1841 133.892 45.2258 133.969 45.2838L135.135 46.1629C135.24 46.2424 135.321 46.3489 135.369 46.4709C135.404 46.5564 135.422 46.648 135.421 46.7403C135.421 46.8956 135.371 47.0468 135.277 47.1709L135.116 47.3871L134.793 47.8209C135.38 48.4898 135.813 49.2799 136.059 50.135C136.306 50.9901 136.36 51.889 136.219 52.7677C136.087 53.6488 135.756 54.4883 135.252 55.2225C134.774 55.9161 134.16 56.505 133.447 56.9532C133.422 56.9682 133.403 56.9909 133.392 57.0178C133.382 57.0447 133.38 57.0743 133.388 57.1021C133.396 57.1299 133.413 57.1543 133.436 57.1717C133.459 57.1891 133.487 57.1985 133.516 57.1984L142.477 57.2064C142.78 57.2064 143.073 57.1052 143.312 56.919C143.55 56.7329 143.719 56.4724 143.792 56.179L146.345 45.8725Z" fill="#54AF47"/>
<path d="M124.247 52.7742C124.106 51.896 124.16 50.9975 124.406 50.1428C124.652 49.288 125.083 48.498 125.669 47.829L125.59 47.7161L125.289 47.2903L125.177 47.129C125.102 47.0234 125.057 46.8989 125.048 46.7693C125.048 46.7575 125.048 46.7457 125.048 46.7339C125.043 46.5567 125.105 46.3841 125.221 46.25C125.26 46.2049 125.304 46.1648 125.353 46.1306L126.547 45.2903C126.652 45.2153 126.776 45.1706 126.905 45.1613H126.96C127.046 45.161 127.132 45.1769 127.213 45.2081C127.348 45.2582 127.465 45.3482 127.548 45.4661L127.842 45.8855L127.961 46.0468L128.006 46.1113C128.017 46.126 128.033 46.1368 128.05 46.142C128.067 46.1472 128.086 46.1467 128.103 46.1403C128.169 46.1161 128.237 46.0919 128.306 46.0693C128.317 46.0657 128.326 46.0601 128.334 46.0528C128.343 46.0454 128.349 46.0366 128.354 46.0266C128.358 46.0167 128.361 46.006 128.362 45.995C128.362 45.9841 128.36 45.9732 128.356 45.9629C128.325 45.8811 128.308 45.7942 128.308 45.7064V44.4387C128.309 44.4082 128.303 44.3778 128.291 44.3495C128.28 44.3213 128.263 44.2956 128.241 44.2741C128.219 44.2525 128.193 44.2356 128.165 44.2243C128.137 44.2129 128.106 44.2074 128.076 44.2081L110.806 44.3548C110.504 44.358 110.212 44.4621 109.975 44.6506C109.739 44.8391 109.572 45.1011 109.502 45.3952L107.039 55.7306C106.991 55.9305 106.989 56.1386 107.034 56.3391C107.079 56.5397 107.168 56.7274 107.297 56.8881C107.425 57.0487 107.588 57.178 107.773 57.2662C107.959 57.3543 108.162 57.399 108.368 57.3968L126.966 57.2097C126.995 57.2094 127.023 57.1998 127.046 57.1823C127.068 57.1648 127.085 57.1404 127.092 57.1126C127.1 57.0849 127.099 57.0555 127.088 57.0288C127.077 57.002 127.058 56.9795 127.034 56.9645C126.316 56.5162 125.698 55.9256 125.218 55.229C124.711 54.4954 124.379 53.6557 124.247 52.7742Z" fill="#196935"/>
<path d="M113.84 50.2516C114.439 49.6064 114.782 49.0161 114.871 48.4855C114.914 48.2671 114.943 48.0462 114.958 47.8242C114.968 47.6672 114.944 47.51 114.888 47.3629C114.833 47.2158 114.747 47.0822 114.635 46.9709C114.386 46.754 114.061 46.6429 113.731 46.6613C113.306 46.6485 112.893 46.7986 112.576 47.0806C112.238 47.4146 112.01 47.8432 111.921 48.3097L111.863 48.5742H110.789L110.848 48.2516C110.955 47.531 111.318 46.8731 111.871 46.3984C112.429 45.9334 113.137 45.688 113.863 45.7081C114.54 45.7081 115.078 45.8919 115.476 46.2597C115.671 46.4395 115.826 46.6594 115.928 46.9044C116.031 47.1493 116.08 47.4135 116.071 47.679C116.059 47.9459 116.025 48.2113 115.969 48.4726C115.892 48.8819 115.739 49.2734 115.519 49.6274C115.25 50.0495 114.942 50.4458 114.6 50.8113L110.761 55.0484H114.571L114.355 56.0016H109.208L109.384 55.1339L113.84 50.2516Z" fill="white"/>
<path d="M121.21 54.0161L120.784 56.0016H119.71L120.135 54.0161H116.327L116.547 53.0484L121.106 45.8564H122.269L117.695 53.0484H120.342L120.931 50.2839H122.005L121.416 53.0484H122.519L122.313 54.0161H121.21Z" fill="white"/>
<path d="M143.513 46.8242L138.247 56.0016H137.173L142.468 46.8242H138.35L138.555 45.8564H143.716L143.513 46.8242Z" fill="white" stroke="white" stroke-width="0.161778" stroke-miterlimit="10"/>
<path d="M133.652 46.0264L132.687 47.3066L133.549 47.9562L134.514 46.6759L133.652 46.0264Z" fill="#54AF47"/>
<path d="M133.42 45.7696L132.988 46.3427C132.938 46.4081 132.951 46.5012 133.017 46.5505L134.184 47.4301C134.249 47.4795 134.342 47.4664 134.391 47.401L134.823 46.8278C134.873 46.7624 134.86 46.6693 134.794 46.62L133.627 45.7404C133.562 45.6911 133.469 45.7041 133.42 45.7696Z" fill="#54AF47"/>
<path d="M134.795 46.6242L133.629 45.7452C133.614 45.7332 133.596 45.7244 133.577 45.7194C133.558 45.7144 133.538 45.7132 133.519 45.7159C133.499 45.7186 133.481 45.7252 133.464 45.7352C133.447 45.7452 133.433 45.7585 133.421 45.7742L133.205 46.0597L134.61 47.1178L134.824 46.8323C134.836 46.8168 134.845 46.7991 134.85 46.7802C134.855 46.7613 134.856 46.7415 134.854 46.7221C134.851 46.7028 134.844 46.6841 134.834 46.6673C134.824 46.6505 134.811 46.6358 134.795 46.6242Z" fill="#54AF47"/>
<path d="M126.841 46.0438L125.958 46.6652L126.882 47.9759L127.764 47.3545L126.841 46.0438Z" fill="#54AF47"/>
<path d="M127.576 45.4643L126.378 46.3119C126.31 46.3594 126.295 46.4524 126.342 46.5196L126.758 47.1082C126.806 47.1754 126.899 47.1913 126.966 47.1438L128.164 46.2962C128.232 46.2487 128.247 46.1557 128.2 46.0885L127.784 45.5C127.736 45.4328 127.643 45.4168 127.576 45.4643Z" fill="#54AF47"/>
<path d="M126.873 45.7533L125.679 46.5936C125.647 46.6169 125.626 46.6516 125.619 46.6904C125.612 46.7293 125.621 46.7692 125.644 46.8017L125.85 47.0936L127.287 46.0823L127.081 45.7888C127.069 45.7727 127.055 45.759 127.038 45.7485C127.022 45.738 127.003 45.7309 126.984 45.7276C126.965 45.7243 126.945 45.7248 126.926 45.7293C126.907 45.7337 126.888 45.7418 126.873 45.7533Z" fill="#54AF47"/>
<path d="M131.063 44.6194H129.4V46.7129H131.063V44.6194Z" fill="#54AF47"/>
<path d="M131.437 44.292H129.026C128.944 44.292 128.877 44.3584 128.877 44.4404V45.7049C128.877 45.7868 128.944 45.8533 129.026 45.8533H131.437C131.519 45.8533 131.586 45.7868 131.586 45.7049V44.4404C131.586 44.3584 131.519 44.292 131.437 44.292Z" fill="#54AF47"/>
<path d="M131.437 44.2919H129.032C128.993 44.2924 128.955 44.3084 128.927 44.3365C128.899 44.3645 128.884 44.4024 128.884 44.4419V45.0742H131.592V44.4419C131.592 44.4218 131.588 44.4019 131.58 44.3834C131.572 44.3649 131.561 44.3481 131.546 44.3341C131.532 44.3201 131.515 44.3092 131.496 44.302C131.477 44.2947 131.457 44.2913 131.437 44.2919Z" fill="#54AF47"/>
<path d="M130.231 56.75C132.956 56.75 135.166 54.5403 135.166 51.8145C135.166 49.0887 132.956 46.879 130.231 46.879C127.505 46.879 125.295 49.0887 125.295 51.8145C125.295 54.5403 127.505 56.75 130.231 56.75Z" fill="white"/>
<path d="M130.231 46.3274C129.146 46.3274 128.086 46.649 127.184 47.2516C126.282 47.8542 125.579 48.7106 125.164 49.7127C124.749 50.7147 124.64 51.8174 124.852 52.8811C125.064 53.9449 125.586 54.922 126.353 55.6889C127.12 56.4559 128.097 56.9782 129.161 57.1898C130.224 57.4014 131.327 57.2928 132.329 56.8777C133.331 56.4626 134.188 55.7598 134.79 54.8579C135.393 53.9561 135.714 52.8959 135.714 51.8113C135.714 50.3569 135.137 48.962 134.108 47.9336C133.08 46.9052 131.685 46.3274 130.231 46.3274ZM130.231 56.7838C127.558 56.7838 125.392 54.5597 125.392 51.8145C125.392 49.0693 127.558 46.8468 130.231 46.8468C132.903 46.8468 135.069 49.0709 135.069 51.8145C135.069 54.558 132.903 56.7838 130.231 56.7838Z" fill="#54AF47"/>
<path d="M130.369 47.2661C130.369 47.1904 130.308 47.129 130.232 47.129C130.157 47.129 130.095 47.1904 130.095 47.2661V47.8693C130.095 47.9451 130.157 48.0064 130.232 48.0064C130.308 48.0064 130.369 47.9451 130.369 47.8693V47.2661Z" fill="#54AF47"/>
<path d="M128.065 47.8097C128.046 47.7783 128.016 47.7554 127.981 47.746C127.946 47.7366 127.909 47.7415 127.877 47.7597C127.846 47.7782 127.824 47.8081 127.814 47.843C127.805 47.878 127.81 47.9152 127.827 47.9468L128.131 48.4693C128.15 48.4974 128.18 48.5171 128.213 48.5246C128.246 48.5321 128.281 48.5269 128.311 48.5099C128.341 48.4929 128.363 48.4654 128.374 48.4329C128.384 48.4003 128.382 48.365 128.368 48.3339L128.065 47.8097Z" fill="#54AF47"/>
<path d="M126.869 49.7323L126.345 49.4306C126.33 49.4206 126.312 49.4138 126.294 49.4107C126.275 49.4076 126.257 49.4083 126.239 49.4127C126.221 49.417 126.204 49.425 126.189 49.4361C126.174 49.4472 126.161 49.4612 126.152 49.4773C126.143 49.4933 126.137 49.5111 126.135 49.5296C126.133 49.548 126.134 49.5667 126.139 49.5845C126.145 49.6023 126.153 49.6188 126.165 49.6331C126.177 49.6475 126.192 49.6592 126.208 49.6677L126.732 49.9694C126.748 49.9786 126.765 49.9846 126.783 49.987C126.801 49.9895 126.819 49.9884 126.836 49.9837C126.854 49.979 126.87 49.971 126.884 49.9599C126.899 49.9489 126.91 49.9351 126.919 49.9194C126.937 49.8878 126.942 49.8506 126.932 49.8156C126.923 49.7807 126.9 49.7508 126.869 49.7323Z" fill="#54AF47"/>
<path d="M126.269 51.6952H125.665C125.628 51.6952 125.593 51.7096 125.568 51.7353C125.542 51.7611 125.527 51.7959 125.527 51.8323C125.527 51.8686 125.542 51.9035 125.568 51.9292C125.593 51.9549 125.628 51.9694 125.665 51.9694H126.269C126.306 51.9694 126.341 51.9549 126.366 51.9292C126.392 51.9035 126.406 51.8686 126.406 51.8323C126.406 51.7959 126.392 51.7611 126.366 51.7353C126.341 51.7096 126.306 51.6952 126.269 51.6952Z" fill="#54AF47"/>
<path d="M126.732 53.6951L126.208 53.9968C126.192 54.0053 126.177 54.017 126.165 54.0313C126.153 54.0457 126.145 54.0622 126.139 54.08C126.134 54.0978 126.133 54.1165 126.135 54.1349C126.137 54.1534 126.143 54.1711 126.152 54.1872C126.161 54.2033 126.174 54.2173 126.189 54.2284C126.204 54.2395 126.221 54.2475 126.239 54.2518C126.257 54.2562 126.275 54.2569 126.294 54.2538C126.312 54.2507 126.33 54.2439 126.345 54.2338L126.869 53.9306C126.885 53.9216 126.898 53.9097 126.909 53.8954C126.92 53.8812 126.928 53.865 126.932 53.8477C126.937 53.8304 126.938 53.8123 126.936 53.7946C126.933 53.7769 126.927 53.7598 126.918 53.7443C126.909 53.7289 126.898 53.7153 126.883 53.7045C126.869 53.6937 126.853 53.6857 126.836 53.6812C126.818 53.6766 126.8 53.6755 126.782 53.6779C126.765 53.6803 126.748 53.6861 126.732 53.6951Z" fill="#54AF47"/>
<path d="M128.319 55.1452C128.304 55.136 128.287 55.13 128.269 55.1275C128.251 55.125 128.233 55.1262 128.215 55.1308C128.198 55.1355 128.181 55.1436 128.167 55.1546C128.153 55.1657 128.141 55.1794 128.132 55.1952L127.829 55.7177C127.813 55.749 127.809 55.7854 127.819 55.8192C127.829 55.853 127.852 55.8817 127.882 55.8993C127.913 55.9169 127.949 55.9221 127.983 55.9139C128.017 55.9056 128.047 55.8845 128.066 55.8548L128.369 55.3306C128.387 55.2993 128.392 55.2624 128.382 55.2277C128.373 55.193 128.35 55.1634 128.319 55.1452Z" fill="#54AF47"/>
<path d="M130.231 55.6565C130.195 55.6569 130.16 55.6715 130.135 55.6972C130.109 55.7229 130.095 55.7575 130.095 55.7936V56.3984C130.093 56.4176 130.095 56.4369 130.101 56.4553C130.107 56.4736 130.117 56.4905 130.129 56.5048C130.142 56.5191 130.158 56.5306 130.176 56.5385C130.193 56.5463 130.212 56.5504 130.231 56.5504C130.251 56.5504 130.27 56.5463 130.287 56.5385C130.305 56.5306 130.321 56.5191 130.334 56.5048C130.346 56.4905 130.356 56.4736 130.362 56.4553C130.368 56.4369 130.37 56.4176 130.368 56.3984V55.7936C130.368 55.7572 130.353 55.7224 130.328 55.6966C130.302 55.6709 130.267 55.6565 130.231 55.6565Z" fill="#54AF47"/>
<path d="M132.331 55.1952C132.311 55.1672 132.282 55.1474 132.248 55.1399C132.215 55.1324 132.18 55.1377 132.15 55.1547C132.121 55.1716 132.098 55.1991 132.088 55.2317C132.077 55.2643 132.079 55.2996 132.094 55.3307L132.395 55.8549C132.414 55.886 132.444 55.9086 132.479 55.9179C132.514 55.9273 132.551 55.9226 132.582 55.9049C132.598 55.896 132.612 55.8841 132.623 55.8699C132.634 55.8556 132.642 55.8393 132.647 55.8219C132.651 55.8044 132.652 55.7862 132.65 55.7684C132.648 55.7505 132.642 55.7333 132.632 55.7178L132.331 55.1952Z" fill="#54AF47"/>
<path d="M134.253 53.9968L133.731 53.6951C133.715 53.6861 133.698 53.6803 133.68 53.6779C133.663 53.6755 133.645 53.6766 133.627 53.6812C133.61 53.6857 133.594 53.6937 133.58 53.7045C133.565 53.7153 133.553 53.7289 133.544 53.7443C133.535 53.7598 133.53 53.7769 133.527 53.7946C133.525 53.8123 133.526 53.8304 133.53 53.8477C133.535 53.865 133.543 53.8812 133.554 53.8954C133.565 53.9097 133.578 53.9216 133.594 53.9306L134.118 54.2338C134.149 54.2481 134.184 54.2501 134.217 54.2397C134.249 54.2292 134.277 54.2069 134.294 54.1772C134.311 54.1475 134.316 54.1125 134.309 54.0791C134.301 54.0457 134.281 54.0163 134.253 53.9968Z" fill="#54AF47"/>
<path d="M134.797 51.6952H134.193C134.157 51.6952 134.122 51.7096 134.097 51.7353C134.071 51.7611 134.056 51.7959 134.056 51.8323C134.056 51.8686 134.071 51.9035 134.097 51.9292C134.122 51.9549 134.157 51.9694 134.193 51.9694H134.798C134.835 51.9694 134.87 51.9549 134.895 51.9292C134.921 51.9035 134.935 51.8686 134.935 51.8323C134.935 51.7959 134.921 51.7611 134.895 51.7353C134.87 51.7096 134.835 51.6952 134.798 51.6952H134.797Z" fill="#54AF47"/>
<path d="M134.118 49.4306L133.593 49.7322C133.562 49.7505 133.539 49.7804 133.53 49.8155C133.52 49.8505 133.525 49.8879 133.543 49.9193C133.552 49.9351 133.564 49.9488 133.579 49.9599C133.593 49.9709 133.609 49.979 133.627 49.9837C133.644 49.9883 133.662 49.9895 133.68 49.987C133.698 49.9846 133.715 49.9785 133.731 49.9693L134.253 49.6677C134.281 49.6481 134.301 49.6188 134.308 49.5854C134.316 49.552 134.311 49.517 134.294 49.4873C134.277 49.4576 134.249 49.4353 134.217 49.4248C134.184 49.4143 134.149 49.4164 134.118 49.4306Z" fill="#54AF47"/>
<path d="M132.581 47.7597C132.549 47.7415 132.512 47.7366 132.477 47.746C132.442 47.7554 132.412 47.7783 132.394 47.8097L132.097 48.3339C132.083 48.365 132.08 48.4003 132.091 48.4329C132.101 48.4654 132.124 48.4929 132.153 48.5099C132.183 48.5269 132.218 48.5321 132.252 48.5246C132.285 48.5171 132.314 48.4974 132.334 48.4693L132.635 47.9468C132.644 47.931 132.65 47.9135 132.652 47.8954C132.654 47.8773 132.653 47.859 132.648 47.8416C132.643 47.8241 132.634 47.8079 132.623 47.7938C132.611 47.7797 132.597 47.7681 132.581 47.7597Z" fill="#54AF47"/>
<path d="M129.805 47.2371C129.805 47.2291 129.804 47.2211 129.801 47.2136C129.798 47.2062 129.793 47.1995 129.787 47.1939C129.781 47.1884 129.774 47.1843 129.767 47.1817C129.759 47.1791 129.751 47.1782 129.743 47.179C129.735 47.1798 129.727 47.1823 129.72 47.1864C129.713 47.1905 129.707 47.196 129.702 47.2025C129.698 47.2091 129.695 47.2166 129.693 47.2245C129.692 47.2324 129.692 47.2406 129.694 47.2484L129.732 47.6194C129.736 47.6327 129.743 47.6443 129.755 47.6522C129.766 47.6601 129.779 47.6637 129.793 47.6623C129.806 47.6609 129.819 47.6547 129.828 47.6447C129.838 47.6347 129.843 47.6217 129.844 47.6081L129.805 47.2371Z" fill="#54AF47"/>
<path d="M129.326 47.3065C129.323 47.292 129.314 47.2793 129.302 47.2711C129.289 47.263 129.274 47.26 129.26 47.2629C129.245 47.2667 129.233 47.2759 129.225 47.2884C129.217 47.301 129.215 47.3161 129.218 47.3307L129.295 47.6936C129.298 47.7079 129.307 47.7204 129.319 47.7285C129.331 47.7365 129.346 47.7393 129.36 47.7363C129.375 47.7333 129.387 47.7247 129.395 47.7125C129.403 47.7002 129.406 47.6853 129.403 47.671L129.326 47.3065Z" fill="#54AF47"/>
<path d="M128.858 47.4194C128.852 47.4068 128.842 47.3967 128.829 47.3912C128.816 47.3857 128.802 47.3851 128.789 47.3895C128.776 47.3939 128.765 47.403 128.758 47.415C128.751 47.4271 128.749 47.4413 128.752 47.4549L128.868 47.8081C128.87 47.815 128.873 47.8214 128.878 47.8269C128.883 47.8324 128.889 47.837 128.895 47.8403C128.901 47.8436 128.909 47.8456 128.916 47.8461C128.923 47.8467 128.93 47.8458 128.937 47.8436C128.944 47.8414 128.95 47.8378 128.956 47.8332C128.961 47.8285 128.966 47.8227 128.969 47.8163C128.973 47.8098 128.975 47.8028 128.975 47.7956C128.976 47.7884 128.975 47.7811 128.973 47.7742L128.858 47.4194Z" fill="#54AF47"/>
<path d="M128.405 47.5936C128.402 47.587 128.398 47.5811 128.392 47.5761C128.387 47.5712 128.381 47.5674 128.374 47.5648C128.368 47.5623 128.36 47.5611 128.353 47.5613C128.346 47.5615 128.339 47.5632 128.332 47.5661C128.325 47.5688 128.319 47.5728 128.314 47.5779C128.309 47.5831 128.305 47.5893 128.302 47.5961C128.299 47.6029 128.298 47.6102 128.298 47.6175C128.298 47.6249 128.3 47.6321 128.303 47.6387L128.455 47.979C128.458 47.986 128.462 47.9922 128.467 47.9975C128.472 48.0027 128.479 48.0068 128.486 48.0095C128.493 48.0122 128.5 48.0135 128.508 48.0133C128.515 48.013 128.522 48.0113 128.529 48.0081C128.542 48.0018 128.553 47.9905 128.558 47.9766C128.563 47.9627 128.563 47.9474 128.556 47.9339L128.405 47.5936Z" fill="#54AF47"/>
<path d="M127.565 48.0645C127.561 48.0574 127.555 48.0513 127.549 48.0465C127.543 48.0416 127.535 48.0382 127.527 48.0365C127.519 48.0348 127.511 48.0347 127.503 48.0364C127.496 48.038 127.488 48.0413 127.482 48.0461C127.475 48.0508 127.47 48.0569 127.466 48.0639C127.462 48.0709 127.46 48.0786 127.459 48.0866C127.458 48.0946 127.459 48.1027 127.462 48.1103C127.464 48.1179 127.469 48.1248 127.474 48.1306L127.692 48.4306C127.696 48.4367 127.702 48.4418 127.708 48.4457C127.714 48.4497 127.721 48.4523 127.729 48.4535C127.736 48.4547 127.744 48.4544 127.751 48.4527C127.758 48.451 127.765 48.4479 127.771 48.4435C127.777 48.4392 127.782 48.4338 127.786 48.4275C127.789 48.4213 127.792 48.4144 127.793 48.4072C127.794 48.4 127.794 48.3926 127.792 48.3856C127.79 48.3785 127.787 48.3719 127.782 48.3661L127.565 48.0645Z" fill="#54AF47"/>
<path d="M127.185 48.3662C127.18 48.3609 127.174 48.3566 127.167 48.3537C127.161 48.3509 127.153 48.3494 127.146 48.3494C127.139 48.3494 127.131 48.3509 127.125 48.3537C127.118 48.3566 127.112 48.3609 127.106 48.3662C127.096 48.3767 127.09 48.3909 127.09 48.4057C127.09 48.4205 127.096 48.4347 127.106 48.4452L127.356 48.7226C127.361 48.7292 127.367 48.7348 127.374 48.7389C127.381 48.743 127.389 48.7456 127.397 48.7465C127.405 48.7473 127.413 48.7465 127.42 48.744C127.428 48.7415 127.435 48.7373 127.441 48.7319C127.447 48.7264 127.452 48.7197 127.455 48.7123C127.458 48.7049 127.459 48.6969 127.459 48.6888C127.459 48.6808 127.457 48.6728 127.454 48.6656C127.45 48.6584 127.445 48.652 127.439 48.6468L127.185 48.3662Z" fill="#54AF47"/>
<path d="M126.839 48.7096C126.828 48.6993 126.814 48.6935 126.799 48.6935C126.784 48.6935 126.77 48.6993 126.76 48.7096C126.75 48.7204 126.744 48.7345 126.744 48.7491C126.744 48.7638 126.75 48.7779 126.76 48.7886L127.037 49.0386C127.047 49.0489 127.061 49.0546 127.076 49.0546C127.09 49.0546 127.104 49.0489 127.114 49.0386C127.125 49.0281 127.131 49.0139 127.131 48.9991C127.131 48.9844 127.125 48.9702 127.114 48.9596L126.839 48.7096Z" fill="#54AF47"/>
<path d="M126.832 49.2936L126.531 49.0742C126.519 49.0676 126.505 49.0656 126.491 49.0686C126.478 49.0716 126.466 49.0793 126.458 49.0904C126.45 49.1014 126.446 49.115 126.447 49.1287C126.448 49.1423 126.455 49.1551 126.464 49.1645L126.766 49.3839C126.772 49.3894 126.779 49.3937 126.786 49.3963C126.794 49.399 126.802 49.4 126.81 49.3993C126.818 49.3986 126.826 49.3962 126.833 49.3922C126.84 49.3883 126.846 49.3829 126.851 49.3764C126.855 49.3699 126.859 49.3625 126.86 49.3547C126.862 49.3468 126.862 49.3387 126.86 49.3308C126.858 49.323 126.855 49.3156 126.85 49.3092C126.845 49.3027 126.839 49.2974 126.832 49.2936Z" fill="#54AF47"/>
<path d="M126.379 50.0564L126.039 49.9048C126.032 49.9005 126.024 49.8977 126.016 49.8966C126.008 49.8954 126 49.896 125.992 49.8983C125.985 49.9006 125.978 49.9045 125.971 49.9097C125.965 49.915 125.96 49.9215 125.957 49.9288C125.954 49.9362 125.952 49.9441 125.952 49.9522C125.952 49.9602 125.954 49.9682 125.957 49.9756C125.96 49.9829 125.965 49.9895 125.971 49.9948C125.977 50.0001 125.984 50.0041 125.992 50.0064L126.334 50.1581C126.347 50.164 126.363 50.1644 126.376 50.1592C126.39 50.1539 126.401 50.1433 126.407 50.1298C126.413 50.1164 126.414 50.1011 126.408 50.0873C126.403 50.0735 126.392 50.0624 126.379 50.0564Z" fill="#54AF47"/>
<path d="M126.214 50.4678L125.86 50.3532C125.852 50.3497 125.844 50.3477 125.836 50.3476C125.828 50.3474 125.82 50.3489 125.813 50.3521C125.805 50.3553 125.799 50.36 125.793 50.366C125.788 50.372 125.784 50.3791 125.781 50.3869C125.779 50.3946 125.778 50.4028 125.779 50.4108C125.78 50.4188 125.783 50.4266 125.787 50.4335C125.791 50.4404 125.797 50.4463 125.803 50.4508C125.81 50.4554 125.818 50.4584 125.826 50.4597L126.179 50.5742C126.186 50.5775 126.194 50.5793 126.202 50.5794C126.21 50.5795 126.218 50.5779 126.225 50.5748C126.232 50.5716 126.239 50.567 126.244 50.5611C126.25 50.5553 126.254 50.5483 126.256 50.5408C126.259 50.5333 126.26 50.5253 126.259 50.5174C126.258 50.5095 126.256 50.5018 126.252 50.4949C126.248 50.4881 126.242 50.4821 126.236 50.4774C126.23 50.4727 126.222 50.4694 126.214 50.4678Z" fill="#54AF47"/>
<path d="M126.094 50.8952L125.729 50.8178C125.722 50.8161 125.714 50.816 125.707 50.8173C125.7 50.8186 125.693 50.8214 125.687 50.8255C125.68 50.8295 125.675 50.8348 125.671 50.841C125.667 50.8471 125.664 50.8541 125.663 50.8613C125.661 50.8685 125.661 50.876 125.662 50.8833C125.664 50.8906 125.666 50.8975 125.671 50.9037C125.675 50.9099 125.68 50.9152 125.686 50.9192C125.692 50.9233 125.699 50.9261 125.706 50.9275L126.071 51.0049C126.085 51.0077 126.101 51.0048 126.113 50.9966C126.125 50.9885 126.134 50.9758 126.137 50.9613C126.14 50.9468 126.136 50.932 126.128 50.9197C126.12 50.9074 126.108 50.8987 126.094 50.8952Z" fill="#54AF47"/>
<path d="M126.018 51.3338L125.645 51.2903C125.637 51.2884 125.629 51.2882 125.621 51.2897C125.613 51.2912 125.606 51.2944 125.599 51.2991C125.593 51.3037 125.587 51.3098 125.583 51.3167C125.579 51.3237 125.577 51.3314 125.576 51.3395C125.575 51.3475 125.576 51.3556 125.578 51.3632C125.581 51.3708 125.585 51.3778 125.591 51.3837C125.596 51.3896 125.603 51.3942 125.61 51.3973C125.618 51.4004 125.626 51.4018 125.634 51.4016L126.005 51.4403C126.012 51.4412 126.019 51.4406 126.026 51.4387C126.033 51.4367 126.04 51.4334 126.046 51.4289C126.051 51.4244 126.056 51.4188 126.06 51.4125C126.063 51.4061 126.065 51.3991 126.066 51.3919C126.067 51.3779 126.062 51.3643 126.053 51.3536C126.044 51.3428 126.032 51.3358 126.018 51.3338Z" fill="#54AF47"/>
<path d="M126.006 52.2194L125.635 52.2597C125.621 52.2613 125.607 52.2686 125.598 52.2801C125.589 52.2916 125.584 52.3062 125.585 52.321C125.586 52.3282 125.588 52.3352 125.592 52.3415C125.596 52.3479 125.6 52.3535 125.606 52.358C125.612 52.3625 125.618 52.3658 125.625 52.3678C125.632 52.3697 125.64 52.3703 125.647 52.3694L126.018 52.3306C126.031 52.3274 126.043 52.3195 126.051 52.3084C126.058 52.2973 126.062 52.2837 126.061 52.2701C126.059 52.2565 126.053 52.2439 126.043 52.2346C126.033 52.2252 126.02 52.2198 126.006 52.2194Z" fill="#54AF47"/>
<path d="M126.071 52.6596L125.706 52.7371C125.693 52.7415 125.683 52.7506 125.676 52.7625C125.669 52.7744 125.667 52.7884 125.669 52.8018C125.672 52.8153 125.68 52.8272 125.691 52.8355C125.702 52.8438 125.715 52.8478 125.729 52.8467L126.094 52.7693C126.108 52.7658 126.12 52.7571 126.128 52.7448C126.136 52.7326 126.14 52.7177 126.137 52.7032C126.134 52.6887 126.125 52.676 126.113 52.6679C126.101 52.6597 126.085 52.6568 126.071 52.6596Z" fill="#54AF47"/>
<path d="M126.179 53.0904L125.826 53.2049C125.818 53.2062 125.81 53.2092 125.803 53.2137C125.797 53.2183 125.791 53.2242 125.787 53.2311C125.783 53.238 125.78 53.2457 125.779 53.2538C125.778 53.2618 125.779 53.27 125.781 53.2777C125.784 53.2854 125.788 53.2925 125.793 53.2985C125.799 53.3045 125.805 53.3093 125.813 53.3125C125.82 53.3157 125.828 53.3172 125.836 53.317C125.844 53.3168 125.852 53.3149 125.86 53.3113L126.214 53.1968C126.227 53.191 126.237 53.1807 126.243 53.168C126.248 53.1552 126.249 53.1409 126.244 53.1277C126.24 53.1145 126.231 53.1034 126.219 53.0966C126.207 53.0897 126.193 53.0875 126.179 53.0904Z" fill="#54AF47"/>
<path d="M126.334 53.5064L125.992 53.658C125.98 53.6653 125.972 53.6766 125.968 53.6897C125.964 53.7028 125.965 53.7168 125.971 53.7292C125.977 53.7416 125.987 53.7515 125.999 53.7571C126.012 53.7627 126.026 53.7636 126.039 53.7596L126.379 53.608C126.393 53.602 126.403 53.5909 126.408 53.5771C126.414 53.5634 126.413 53.5481 126.407 53.5346C126.401 53.5211 126.39 53.5106 126.376 53.5053C126.363 53.5 126.347 53.5004 126.334 53.5064Z" fill="#54AF47"/>
<path d="M126.774 54.2806L126.473 54.5C126.467 54.5043 126.462 54.5097 126.458 54.516C126.454 54.5222 126.452 54.5291 126.451 54.5363C126.45 54.5435 126.45 54.5509 126.452 54.5579C126.454 54.565 126.457 54.5716 126.461 54.5774C126.47 54.5892 126.483 54.5971 126.497 54.5995C126.512 54.6019 126.527 54.5986 126.539 54.5903L126.84 54.371C126.847 54.3671 126.853 54.3618 126.858 54.3554C126.863 54.3489 126.867 54.3416 126.868 54.3337C126.87 54.3259 126.87 54.3177 126.868 54.3099C126.867 54.302 126.863 54.2946 126.859 54.2881C126.854 54.2816 126.848 54.2762 126.841 54.2723C126.834 54.2683 126.826 54.2659 126.818 54.2652C126.81 54.2645 126.802 54.2655 126.794 54.2682C126.787 54.2708 126.78 54.2751 126.774 54.2806Z" fill="#54AF47"/>
<path d="M127.042 54.6291L126.765 54.8791C126.755 54.8898 126.749 54.9039 126.749 54.9186C126.749 54.9333 126.755 54.9474 126.765 54.9581C126.775 54.9685 126.789 54.9742 126.804 54.9742C126.819 54.9742 126.833 54.9685 126.844 54.9581L127.121 54.7097C127.131 54.6992 127.137 54.685 127.137 54.6702C127.137 54.6554 127.131 54.6412 127.121 54.6307C127.116 54.6251 127.11 54.6205 127.103 54.6173C127.097 54.6142 127.089 54.6125 127.082 54.6123C127.074 54.6122 127.067 54.6136 127.06 54.6165C127.053 54.6193 127.047 54.6237 127.042 54.6291Z" fill="#54AF47"/>
<path d="M127.352 54.9467L127.097 55.2241C127.086 55.2347 127.081 55.2489 127.081 55.2636C127.081 55.2784 127.086 55.2926 127.097 55.3032C127.102 55.3085 127.108 55.3127 127.115 55.3156C127.122 55.3185 127.129 55.32 127.136 55.32C127.144 55.32 127.151 55.3185 127.158 55.3156C127.164 55.3127 127.171 55.3085 127.176 55.3032L127.424 55.0273C127.43 55.0222 127.435 55.0158 127.439 55.0086C127.442 55.0013 127.444 54.9934 127.445 54.9853C127.445 54.9773 127.443 54.9693 127.44 54.9619C127.437 54.9544 127.432 54.9478 127.426 54.9423C127.421 54.9368 127.413 54.9327 127.406 54.9302C127.398 54.9277 127.39 54.9268 127.382 54.9277C127.374 54.9286 127.366 54.9312 127.359 54.9353C127.352 54.9394 127.346 54.9449 127.342 54.9515L127.352 54.9467Z" fill="#54AF47"/>
<path d="M127.771 55.2194C127.759 55.2108 127.744 55.2072 127.729 55.2093C127.714 55.2114 127.701 55.2191 127.692 55.2307L127.474 55.5323C127.47 55.5382 127.466 55.545 127.465 55.5522C127.463 55.5594 127.462 55.5668 127.463 55.5742C127.465 55.5815 127.467 55.5886 127.471 55.5949C127.475 55.6013 127.48 55.6069 127.485 55.6113C127.498 55.6198 127.513 55.6231 127.528 55.6207C127.542 55.6183 127.556 55.6103 127.565 55.5985L127.782 55.2968C127.787 55.291 127.79 55.2844 127.792 55.2774C127.793 55.2703 127.794 55.263 127.793 55.2558C127.792 55.2486 127.789 55.2416 127.786 55.2354C127.782 55.2291 127.777 55.2237 127.771 55.2194Z" fill="#54AF47"/>
<path d="M128.529 55.6565C128.522 55.6533 128.515 55.6515 128.508 55.6513C128.5 55.651 128.493 55.6523 128.486 55.655C128.479 55.6577 128.472 55.6618 128.467 55.6671C128.462 55.6723 128.458 55.6786 128.455 55.6855L128.303 56.0258C128.3 56.0325 128.298 56.0397 128.298 56.047C128.298 56.0543 128.299 56.0617 128.302 56.0685C128.305 56.0753 128.309 56.0815 128.314 56.0866C128.319 56.0918 128.325 56.0958 128.332 56.0984C128.339 56.1014 128.346 56.103 128.353 56.1033C128.36 56.1035 128.368 56.1023 128.374 56.0997C128.381 56.0972 128.387 56.0933 128.392 56.0884C128.398 56.0835 128.402 56.0776 128.405 56.071L128.556 55.7307C128.563 55.7172 128.563 55.7018 128.558 55.688C128.553 55.6741 128.542 55.6628 128.529 55.6565Z" fill="#54AF47"/>
<path d="M128.937 55.8064C128.923 55.8023 128.908 55.8039 128.895 55.8109C128.882 55.8178 128.872 55.8295 128.868 55.8435L128.752 56.1967C128.749 56.2038 128.748 56.2113 128.749 56.2188C128.749 56.2263 128.751 56.2336 128.755 56.2402C128.758 56.2469 128.763 56.2528 128.769 56.2575C128.775 56.2622 128.781 56.2657 128.789 56.2677C128.796 56.2699 128.803 56.2708 128.81 56.2703C128.817 56.2697 128.824 56.2677 128.831 56.2644C128.837 56.2611 128.843 56.2566 128.848 56.251C128.852 56.2455 128.856 56.2391 128.858 56.2322L128.973 55.8774C128.977 55.8632 128.976 55.8479 128.969 55.8346C128.963 55.8213 128.951 55.8112 128.937 55.8064Z" fill="#54AF47"/>
<path d="M129.355 55.9274C129.341 55.9245 129.326 55.9272 129.313 55.935C129.301 55.9429 129.292 55.9552 129.289 55.9693L129.211 56.3339C129.21 56.341 129.21 56.3483 129.211 56.3555C129.212 56.3626 129.215 56.3695 129.219 56.3756C129.222 56.3818 129.228 56.3871 129.233 56.3912C129.239 56.3954 129.246 56.3984 129.253 56.4C129.26 56.4016 129.268 56.4018 129.275 56.4005C129.282 56.3993 129.289 56.3966 129.295 56.3927C129.301 56.3888 129.306 56.3838 129.311 56.3778C129.315 56.3719 129.318 56.3651 129.319 56.3581L129.397 55.9935C129.4 55.9792 129.397 55.9644 129.389 55.952C129.381 55.9397 129.369 55.9309 129.355 55.9274Z" fill="#54AF47"/>
<path d="M129.794 55.9951C129.779 55.9938 129.764 55.9982 129.753 56.0076C129.741 56.0169 129.734 56.0304 129.732 56.0451L129.694 56.4161C129.694 56.4297 129.699 56.4427 129.709 56.4527C129.718 56.4627 129.731 56.4689 129.744 56.4703C129.758 56.4717 129.772 56.4681 129.783 56.4602C129.794 56.4523 129.802 56.4406 129.805 56.4274L129.844 56.0564C129.845 56.0417 129.84 56.027 129.831 56.0155C129.822 56.0041 129.808 55.9967 129.794 55.9951Z" fill="#54AF47"/>
<path d="M130.731 56.0451C130.731 56.0371 130.729 56.029 130.726 56.0216C130.723 56.0141 130.719 56.0074 130.713 56.0019C130.707 55.9964 130.7 55.9922 130.692 55.9897C130.685 55.9871 130.677 55.9862 130.669 55.987C130.661 55.9878 130.653 55.9903 130.646 55.9944C130.639 55.9984 130.633 56.0039 130.628 56.0105C130.624 56.0171 130.62 56.0246 130.619 56.0325C130.617 56.0404 130.617 56.0486 130.619 56.0564L130.658 56.4274C130.66 56.4421 130.667 56.4556 130.679 56.4649C130.69 56.4743 130.705 56.4787 130.719 56.4774C130.734 56.4757 130.748 56.4684 130.757 56.457C130.766 56.4455 130.771 56.4308 130.769 56.4161L130.731 56.0451Z" fill="#54AF47"/>
<path d="M131.168 55.9677C131.163 55.9544 131.154 55.9433 131.142 55.9363C131.13 55.9294 131.116 55.9273 131.102 55.9303C131.088 55.9333 131.076 55.9413 131.068 55.9526C131.06 55.964 131.056 55.978 131.058 55.9919L131.135 56.3564C131.139 56.3706 131.148 56.3829 131.16 56.3907C131.172 56.3985 131.187 56.4012 131.202 56.3983C131.209 56.397 131.216 56.3942 131.222 56.3901C131.228 56.386 131.233 56.3807 131.237 56.3746C131.241 56.3684 131.244 56.3614 131.246 56.3542C131.247 56.3469 131.247 56.3394 131.245 56.3322L131.168 55.9677Z" fill="#54AF47"/>
<path d="M131.595 55.8499C131.594 55.8419 131.591 55.8343 131.586 55.8276C131.582 55.8209 131.576 55.8152 131.569 55.8109C131.562 55.8067 131.554 55.804 131.546 55.803C131.538 55.802 131.53 55.8028 131.522 55.8053C131.515 55.8077 131.508 55.8118 131.502 55.8173C131.496 55.8227 131.491 55.8294 131.488 55.8368C131.484 55.8443 131.483 55.8523 131.483 55.8604C131.483 55.8686 131.485 55.8765 131.489 55.8838L131.605 56.2386C131.607 56.2455 131.611 56.2519 131.615 56.2575C131.62 56.263 131.626 56.2675 131.632 56.2708C131.639 56.2741 131.646 56.2761 131.653 56.2767C131.66 56.2773 131.667 56.2764 131.674 56.2741C131.688 56.2693 131.7 56.2592 131.707 56.2459C131.713 56.2326 131.714 56.2173 131.71 56.2032L131.595 55.8499Z" fill="#54AF47"/>
<path d="M132.008 55.6855C132.002 55.6718 131.991 55.6611 131.977 55.6556C131.963 55.6502 131.948 55.6505 131.934 55.6564C131.92 55.6628 131.91 55.674 131.905 55.6878C131.899 55.7015 131.899 55.7169 131.905 55.7306L132.056 56.0709C132.063 56.0843 132.074 56.0947 132.088 56.0998C132.102 56.1049 132.117 56.1044 132.131 56.0984C132.137 56.0955 132.143 56.0914 132.149 56.0862C132.154 56.081 132.158 56.0749 132.16 56.0681C132.163 56.0614 132.164 56.0542 132.164 56.0469C132.164 56.0396 132.163 56.0324 132.16 56.0258L132.008 55.6855Z" fill="#54AF47"/>
<path d="M132.769 55.2307C132.76 55.2192 132.747 55.2116 132.733 55.2095C132.719 55.2073 132.704 55.2109 132.692 55.2194C132.686 55.2236 132.681 55.2289 132.677 55.2351C132.673 55.2413 132.67 55.2482 132.669 55.2554C132.668 55.2626 132.668 55.27 132.67 55.2771C132.672 55.2842 132.675 55.2909 132.679 55.2968L132.898 55.5984C132.902 55.6055 132.908 55.6116 132.914 55.6164C132.92 55.6213 132.928 55.6247 132.936 55.6264C132.944 55.6281 132.952 55.6282 132.959 55.6265C132.967 55.6249 132.975 55.6216 132.981 55.6168C132.988 55.6121 132.993 55.606 132.997 55.599C133.001 55.592 133.003 55.5843 133.004 55.5763C133.005 55.5683 133.004 55.5602 133.001 55.5526C132.999 55.545 132.994 55.5381 132.989 55.5323L132.769 55.2307Z" fill="#54AF47"/>
<path d="M133.111 54.9468C133.101 54.9381 133.087 54.9335 133.074 54.9339C133.06 54.9342 133.047 54.9395 133.037 54.9488C133.027 54.958 133.021 54.9706 133.019 54.9842C133.018 54.9977 133.021 55.0114 133.029 55.0226L133.277 55.2984C133.283 55.3037 133.289 55.3079 133.295 55.3108C133.302 55.3137 133.31 55.3152 133.317 55.3152C133.324 55.3152 133.332 55.3137 133.338 55.3108C133.345 55.3079 133.351 55.3037 133.356 55.2984C133.366 55.2876 133.372 55.2735 133.372 55.2589C133.372 55.2442 133.366 55.2301 133.356 55.2193L133.111 54.9468Z" fill="#54AF47"/>
<path d="M133.421 54.629C133.416 54.6237 133.41 54.6194 133.403 54.6166C133.396 54.6137 133.389 54.6122 133.381 54.6122C133.374 54.6122 133.367 54.6137 133.36 54.6166C133.353 54.6194 133.347 54.6237 133.342 54.629C133.332 54.6395 133.326 54.6537 133.326 54.6685C133.326 54.6833 133.332 54.6975 133.342 54.708L133.618 54.9564C133.623 54.9626 133.629 54.9677 133.637 54.9712C133.644 54.9747 133.652 54.9767 133.66 54.9769C133.668 54.9771 133.676 54.9756 133.683 54.9725C133.691 54.9693 133.697 54.9647 133.703 54.9587C133.708 54.9528 133.712 54.9458 133.715 54.9381C133.717 54.9305 133.718 54.9224 133.717 54.9143C133.717 54.9063 133.714 54.8986 133.71 54.8917C133.706 54.8847 133.7 54.8788 133.694 54.8742L133.421 54.629Z" fill="#54AF47"/>
<path d="M133.997 54.5L133.695 54.2806C133.689 54.2764 133.683 54.2733 133.675 54.2717C133.668 54.2701 133.661 54.2698 133.654 54.271C133.647 54.2722 133.64 54.2748 133.634 54.2787C133.627 54.2825 133.622 54.2876 133.618 54.2935C133.614 54.2994 133.61 54.3061 133.609 54.3132C133.607 54.3203 133.607 54.3277 133.608 54.3349C133.609 54.3421 133.612 54.349 133.616 54.3551C133.62 54.3613 133.625 54.3667 133.631 54.3709L133.932 54.5903C133.944 54.5986 133.959 54.6019 133.974 54.5995C133.988 54.5971 134.001 54.5891 134.01 54.5774C134.014 54.5715 134.017 54.5648 134.019 54.5577C134.02 54.5505 134.021 54.5432 134.02 54.5359C134.018 54.5287 134.016 54.5218 134.012 54.5156C134.008 54.5095 134.003 54.5041 133.997 54.5Z" fill="#54AF47"/>
<path d="M134.469 53.658L134.129 53.5064C134.122 53.5034 134.115 53.5018 134.108 53.5016C134.1 53.5014 134.093 53.5027 134.086 53.5053C134.08 53.5079 134.073 53.5119 134.068 53.5169C134.063 53.5219 134.059 53.5279 134.056 53.5346C134.053 53.5413 134.051 53.5485 134.051 53.5558C134.051 53.5631 134.052 53.5703 134.054 53.5772C134.057 53.584 134.061 53.5902 134.066 53.5955C134.071 53.6008 134.077 53.605 134.084 53.608L134.424 53.7596C134.438 53.7656 134.453 53.766 134.467 53.7607C134.48 53.7554 134.492 53.7449 134.498 53.7314C134.503 53.7179 134.504 53.7026 134.499 53.6888C134.493 53.6751 134.483 53.664 134.469 53.658Z" fill="#54AF47"/>
<path d="M134.637 53.2049L134.282 53.0904C134.275 53.0881 134.268 53.0872 134.261 53.0878C134.254 53.0884 134.247 53.0904 134.24 53.0937C134.234 53.097 134.228 53.1015 134.223 53.107C134.219 53.1126 134.215 53.119 134.213 53.1259C134.208 53.14 134.209 53.1553 134.216 53.1686C134.223 53.1819 134.234 53.192 134.248 53.1968L134.603 53.3114C134.61 53.3136 134.617 53.3145 134.625 53.3139C134.632 53.3133 134.639 53.3114 134.645 53.3081C134.652 53.3048 134.657 53.3002 134.662 53.2947C134.667 53.2892 134.67 53.2828 134.673 53.2759C134.677 53.2617 134.676 53.2464 134.669 53.2331C134.663 53.2198 134.651 53.2097 134.637 53.2049Z" fill="#54AF47"/>
<path d="M134.756 52.7419L134.392 52.6645C134.385 52.6628 134.377 52.6626 134.37 52.664C134.363 52.6653 134.356 52.6681 134.35 52.6721C134.343 52.6762 134.338 52.6815 134.334 52.6876C134.33 52.6938 134.327 52.7007 134.326 52.708C134.323 52.7225 134.326 52.7376 134.334 52.75C134.342 52.7624 134.355 52.771 134.369 52.7741L134.734 52.8516C134.748 52.8544 134.763 52.8515 134.776 52.8433C134.788 52.8352 134.797 52.8225 134.8 52.808C134.802 52.8008 134.802 52.7933 134.8 52.7861C134.799 52.7788 134.796 52.7718 134.792 52.7657C134.788 52.7595 134.783 52.7542 134.777 52.7501C134.771 52.746 134.764 52.7432 134.756 52.7419Z" fill="#54AF47"/>
<path d="M134.826 52.2581L134.456 52.2178C134.442 52.2164 134.427 52.2209 134.416 52.2302C134.404 52.2396 134.397 52.2531 134.395 52.2678C134.394 52.275 134.395 52.2823 134.397 52.2893C134.399 52.2963 134.402 52.3028 134.407 52.3085C134.411 52.3142 134.417 52.319 134.423 52.3225C134.429 52.326 134.436 52.3283 134.444 52.3291L134.815 52.3678C134.822 52.3687 134.829 52.3681 134.836 52.3662C134.843 52.3642 134.85 52.3609 134.855 52.3564C134.861 52.3519 134.866 52.3463 134.869 52.3399C134.873 52.3336 134.875 52.3266 134.876 52.3194C134.877 52.3047 134.873 52.29 134.863 52.2785C134.854 52.2671 134.841 52.2597 134.826 52.2581Z" fill="#54AF47"/>
<path d="M134.815 51.2903L134.444 51.3306C134.436 51.3315 134.429 51.3337 134.423 51.3373C134.417 51.3408 134.411 51.3455 134.407 51.3512C134.402 51.3569 134.399 51.3634 134.397 51.3704C134.395 51.3774 134.394 51.3847 134.395 51.3919C134.396 51.3991 134.398 51.4061 134.402 51.4124C134.405 51.4187 134.41 51.4243 134.416 51.4288C134.421 51.4333 134.428 51.4366 134.435 51.4386C134.442 51.4406 134.449 51.4411 134.456 51.4403L134.826 51.4016C134.839 51.3984 134.851 51.3905 134.859 51.3793C134.866 51.3682 134.87 51.3546 134.869 51.341C134.867 51.3274 134.861 51.3148 134.851 51.3055C134.841 51.2962 134.828 51.2908 134.815 51.2903Z" fill="#54AF47"/>
<path d="M134.734 50.8177L134.369 50.8951C134.355 50.8982 134.342 50.9069 134.334 50.9193C134.326 50.9317 134.323 50.9467 134.326 50.9613C134.327 50.9685 134.33 50.9755 134.334 50.9816C134.338 50.9878 134.343 50.9931 134.35 50.9972C134.356 51.0012 134.363 51.004 134.37 51.0053C134.377 51.0066 134.385 51.0065 134.392 51.0048L134.756 50.9274C134.764 50.9261 134.771 50.9233 134.777 50.9192C134.783 50.9151 134.788 50.9098 134.792 50.9036C134.796 50.8974 134.799 50.8905 134.8 50.8832C134.802 50.8759 134.802 50.8685 134.8 50.8613C134.797 50.8468 134.788 50.8341 134.776 50.826C134.763 50.8178 134.748 50.8149 134.734 50.8177Z" fill="#54AF47"/>
<path d="M134.603 50.3532L134.248 50.4677C134.234 50.4725 134.223 50.4826 134.216 50.4959C134.209 50.5092 134.208 50.5246 134.213 50.5387C134.215 50.5456 134.219 50.552 134.223 50.5575C134.228 50.563 134.234 50.5676 134.24 50.5709C134.247 50.5742 134.254 50.5762 134.261 50.5767C134.268 50.5773 134.275 50.5764 134.282 50.5742L134.637 50.4596C134.651 50.4549 134.663 50.4447 134.669 50.4315C134.676 50.4182 134.677 50.4028 134.673 50.3887C134.67 50.3818 134.667 50.3754 134.662 50.3699C134.657 50.3643 134.652 50.3598 134.645 50.3565C134.639 50.3532 134.632 50.3512 134.625 50.3506C134.617 50.3501 134.61 50.3509 134.603 50.3532Z" fill="#54AF47"/>
<path d="M134.424 49.9048L134.084 50.0564C134.077 50.0594 134.071 50.0636 134.066 50.0689C134.061 50.0742 134.057 50.0805 134.054 50.0873C134.052 50.0941 134.051 50.1014 134.051 50.1087C134.051 50.116 134.053 50.1231 134.056 50.1298C134.059 50.1365 134.063 50.1425 134.068 50.1475C134.073 50.1526 134.08 50.1565 134.086 50.1591C134.093 50.1618 134.1 50.163 134.108 50.1628C134.115 50.1626 134.122 50.161 134.129 50.158L134.469 50.0064C134.476 50.0035 134.482 49.9992 134.487 49.9939C134.492 49.9886 134.496 49.9824 134.499 49.9756C134.501 49.9688 134.502 49.9615 134.502 49.9542C134.502 49.9469 134.5 49.9397 134.498 49.933C134.495 49.9264 134.49 49.9203 134.485 49.9153C134.48 49.9103 134.473 49.9063 134.467 49.9037C134.46 49.9011 134.453 49.8999 134.445 49.9C134.438 49.9002 134.431 49.9018 134.424 49.9048Z" fill="#54AF47"/>
<path d="M133.932 49.0742L133.631 49.2935C133.619 49.3021 133.611 49.3151 133.608 49.3296C133.606 49.3441 133.609 49.359 133.618 49.371C133.626 49.3829 133.639 49.391 133.654 49.3935C133.668 49.3959 133.683 49.3924 133.695 49.3839L133.997 49.1645C134.009 49.156 134.017 49.143 134.019 49.1285C134.022 49.1139 134.018 49.0991 134.01 49.0871C134.001 49.0751 133.988 49.067 133.974 49.0646C133.959 49.0622 133.944 49.0656 133.932 49.0742Z" fill="#54AF47"/>
<path d="M133.623 48.7097L133.347 48.9581C133.34 48.9626 133.335 48.9685 133.33 48.9753C133.326 48.9822 133.323 48.9898 133.322 48.9978C133.321 49.0057 133.322 49.0138 133.325 49.0215C133.327 49.0291 133.331 49.0362 133.336 49.0422C133.342 49.0482 133.348 49.053 133.355 49.0563C133.363 49.0596 133.371 49.0613 133.379 49.0613C133.387 49.0612 133.395 49.0595 133.402 49.0562C133.409 49.0529 133.416 49.048 133.421 49.042L133.698 48.792C133.705 48.7874 133.711 48.7814 133.715 48.7745C133.719 48.7675 133.721 48.7598 133.722 48.7518C133.723 48.7438 133.722 48.7357 133.72 48.728C133.717 48.7204 133.713 48.7133 133.708 48.7074C133.702 48.7015 133.695 48.6968 133.688 48.6936C133.681 48.6905 133.673 48.689 133.665 48.6892C133.657 48.6894 133.649 48.6914 133.641 48.6949C133.634 48.6985 133.628 48.7035 133.623 48.7097Z" fill="#54AF47"/>
<path d="M133.277 48.3661L133.029 48.6419C133.021 48.6531 133.018 48.6668 133.019 48.6803C133.021 48.6939 133.027 48.7065 133.037 48.7157C133.047 48.7249 133.06 48.7303 133.074 48.7306C133.087 48.731 133.101 48.7264 133.111 48.7177L133.36 48.4403C133.37 48.4297 133.376 48.4156 133.376 48.4008C133.376 48.386 133.37 48.3718 133.36 48.3613C133.354 48.3557 133.348 48.3514 133.34 48.3486C133.333 48.3458 133.325 48.3446 133.317 48.3451C133.31 48.3455 133.302 48.3476 133.295 48.3513C133.288 48.3549 133.282 48.36 133.277 48.3661Z" fill="#54AF47"/>
<path d="M132.976 48.0532C132.97 48.0489 132.963 48.0458 132.956 48.0441C132.949 48.0424 132.942 48.0421 132.934 48.0434C132.927 48.0446 132.92 48.0472 132.914 48.0511C132.908 48.055 132.903 48.0601 132.898 48.0661L132.679 48.3677C132.67 48.3797 132.667 48.3946 132.669 48.4091C132.672 48.4236 132.68 48.4366 132.692 48.4451C132.704 48.4537 132.719 48.4571 132.733 48.4547C132.748 48.4523 132.761 48.4442 132.769 48.4322L132.989 48.1322C132.993 48.1262 132.996 48.1194 132.998 48.1121C133 48.1049 133 48.0974 132.999 48.09C132.997 48.0827 132.995 48.0757 132.991 48.0693C132.987 48.063 132.982 48.0575 132.976 48.0532Z" fill="#54AF47"/>
<path d="M132.131 47.5661C132.117 47.5601 132.102 47.5595 132.088 47.5647C132.074 47.5698 132.063 47.5802 132.056 47.5935L131.905 47.9339C131.899 47.9476 131.899 47.9629 131.905 47.9767C131.91 47.9905 131.92 48.0017 131.934 48.0081C131.948 48.014 131.963 48.0143 131.977 48.0089C131.991 48.0034 132.002 47.9927 132.008 47.979L132.16 47.6387C132.163 47.632 132.164 47.6249 132.164 47.6176C132.164 47.6103 132.163 47.6031 132.16 47.5963C132.158 47.5896 132.154 47.5834 132.149 47.5782C132.143 47.573 132.137 47.5689 132.131 47.5661Z" fill="#54AF47"/>
<path d="M131.674 47.3903C131.667 47.3881 131.66 47.3872 131.653 47.3877C131.646 47.3883 131.639 47.3903 131.632 47.3936C131.626 47.3969 131.62 47.4014 131.615 47.407C131.611 47.4125 131.607 47.4189 131.605 47.4258L131.489 47.7806C131.486 47.7875 131.486 47.7948 131.486 47.802C131.487 47.8092 131.489 47.8163 131.492 47.8227C131.495 47.8291 131.5 47.8349 131.505 47.8396C131.511 47.8442 131.517 47.8478 131.524 47.85C131.538 47.8546 131.554 47.8535 131.567 47.8468C131.58 47.8402 131.59 47.8286 131.595 47.8145L131.71 47.4613C131.714 47.4472 131.713 47.4318 131.706 47.4185C131.7 47.4052 131.688 47.3951 131.674 47.3903Z" fill="#54AF47"/>
<path d="M131.202 47.258C131.187 47.2556 131.172 47.2587 131.16 47.2668C131.148 47.2749 131.139 47.2873 131.135 47.3016L131.058 47.6661C131.055 47.6737 131.054 47.6817 131.055 47.6897C131.056 47.6977 131.058 47.7054 131.062 47.7124C131.066 47.7194 131.072 47.7254 131.078 47.7301C131.085 47.7348 131.092 47.7381 131.1 47.7397C131.108 47.7414 131.116 47.7413 131.124 47.7395C131.132 47.7377 131.139 47.7343 131.145 47.7295C131.152 47.7247 131.157 47.7185 131.161 47.7115C131.165 47.7044 131.167 47.6967 131.168 47.6887L131.245 47.3258C131.247 47.3184 131.247 47.3109 131.246 47.3035C131.244 47.2961 131.242 47.2891 131.238 47.2828C131.233 47.2765 131.228 47.271 131.222 47.2668C131.216 47.2625 131.209 47.2595 131.202 47.258Z" fill="#54AF47"/>
<path d="M130.719 47.1871C130.705 47.1858 130.69 47.1903 130.679 47.1996C130.667 47.209 130.66 47.2224 130.658 47.2371L130.619 47.6081C130.62 47.6217 130.625 47.6347 130.635 47.6447C130.644 47.6547 130.657 47.6609 130.67 47.6623C130.684 47.6637 130.697 47.6601 130.708 47.6522C130.72 47.6443 130.727 47.6327 130.731 47.6194L130.769 47.2484C130.771 47.2337 130.766 47.219 130.757 47.2076C130.748 47.1961 130.734 47.1888 130.719 47.1871Z" fill="#54AF47"/>
<path d="M130.231 48.9904C130.196 48.9908 130.163 49.0049 130.138 49.0297C130.114 49.0544 130.1 49.0878 130.1 49.1226V51.8323C130.1 51.8669 130.114 51.9002 130.138 51.9247C130.163 51.9492 130.196 51.9629 130.231 51.9629C130.265 51.9629 130.299 51.9492 130.324 51.9248C130.348 51.9003 130.362 51.8671 130.363 51.8323V49.1226C130.363 49.1052 130.359 49.0881 130.353 49.072C130.346 49.056 130.336 49.0414 130.324 49.0291C130.312 49.0168 130.297 49.0071 130.281 49.0004C130.265 48.9938 130.248 48.9904 130.231 48.9904Z" fill="#196935"/>
<path d="M130.706 52.1248L130.674 52.1434C130.62 52.1746 130.601 52.2438 130.632 52.298L131.631 54.0366C131.663 54.0909 131.732 54.1096 131.786 54.0784L131.818 54.0599C131.873 54.0287 131.891 53.9594 131.86 53.9052L130.861 52.1666C130.83 52.1123 130.76 52.0937 130.706 52.1248Z" fill="#196935"/>
</svg>
