<svg width="72" height="80" viewBox="0 0 72 80" fill="none" xmlns="http://www.w3.org/2000/svg">
<path d="M36.5028 35.3433H21.5293V52.0864H36.5028V35.3433Z" fill="#CCCCCC"/>
<path d="M13.9064 77.2691H6.28353L5.4668 70.7352H14.7231L13.9064 77.2691Z" fill="#E6E6E6"/>
<path d="M29.2133 72.5364L28.9561 76.0531C28.9445 76.2123 28.967 76.3721 29.0222 76.5219C29.0774 76.6716 29.1639 76.8079 29.2761 76.9214C29.3882 77.035 29.5234 77.1233 29.6724 77.1803C29.8215 77.2374 29.981 77.2619 30.1404 77.2522L31.9467 77.1428C32.0304 77.1377 32.1119 77.1143 32.1856 77.0741C32.2592 77.034 32.323 76.9781 32.3726 76.9105C32.4222 76.8428 32.4563 76.7651 32.4724 76.6828C32.4886 76.6006 32.4864 76.5157 32.4661 76.4344L31.4634 72.4238L29.2133 72.5364Z" fill="#E6E6E6"/>
<path d="M44.3231 74.616C46.449 75.1133 47.9677 75.8201 48.9653 76.7768C49.3206 77.1149 49.7855 77.3142 50.2753 77.3384C50.901 77.3713 51.4126 77.3011 51.7971 77.1294H51.7971C51.8956 77.086 51.9807 77.017 52.0435 76.9296C52.1063 76.8422 52.1446 76.7396 52.1544 76.6325C52.1661 76.5236 52.1484 76.4136 52.1032 76.3138C52.058 76.2141 51.9869 76.1283 51.8973 76.0652L46.8554 72.4778L44.7138 73.3345L44.2142 73.8341C44.1601 73.8882 44.1193 73.9541 44.095 74.0267C44.0707 74.0992 44.0635 74.1764 44.0741 74.2521C44.0846 74.3279 44.1126 74.4002 44.1558 74.4633C44.199 74.5265 44.2563 74.5787 44.3231 74.616H44.3231Z" fill="#E6E6E6"/>
<path d="M37.7804 17.1974L23.3687 17.0639C23.4049 14.9648 23.8933 12.9036 24.9608 11.059C25.662 9.84763 25.6468 8.52924 25.4779 7.41853C25.2171 5.70447 25.8235 3.95073 27.1708 2.85961C28.2005 2.02432 29.5001 1.59434 30.8247 1.65066L31.1046 1.66232C32.0161 1.7002 32.9035 1.96647 33.6853 2.43669C34.4671 2.90691 35.1183 3.566 35.579 4.35344C36.0473 5.19408 36.2361 6.16183 36.1182 7.11684C36.0269 8.01542 36.2455 8.92316 36.7567 9.83954C37.6388 11.8518 37.8298 14.4267 37.7804 17.1974Z" fill="#2F2E41"/>
<path d="M47.422 72.6649L44.5935 73.4028L30.8201 43.3964L31.681 72.6649H28.8525C25.8301 58.8949 20.3733 43.0028 22.8266 37.9855L37.4609 37.1246L47.422 72.6649Z" fill="#6C63FF"/>
<path d="M30.6975 12.1603C32.803 12.1603 34.5098 10.4535 34.5098 8.34805C34.5098 6.24258 32.803 4.53577 30.6975 4.53577C28.5921 4.53577 26.8853 6.24258 26.8853 8.34805C26.8853 10.4535 28.5921 12.1603 30.6975 12.1603Z" fill="#FFB9B9"/>
<path d="M34.0179 15.3578L27.7461 14.9888C28.3607 13.5781 28.6063 12.2196 28.361 10.9306H33.0341C33.0235 11.9203 33.516 13.6323 34.0179 15.3578Z" fill="#FFB9B9"/>
<path d="M37.9535 38.2314L24.1802 39.2153L25.5944 14.8044L27.9924 14.128L30.6979 14.7429L33.4033 13.3901L35.125 14.0051L37.9535 38.2314Z" fill="#6C63FF"/>
<path d="M26.5161 55.8171L17.1084 53.665C19.9058 44.3885 24.9455 23.1665 23.3187 15.6037L28.2378 13.3901L26.5161 55.8171Z" fill="#E6E6E6"/>
<path d="M21.9662 29.0082L18.3999 26.7946L21.4413 17.8868C21.7806 16.9676 22.4303 16.1959 23.2782 15.705L24.3028 15.1118L23.6879 24.0891L21.9662 29.0082Z" fill="#E6E6E6"/>
<path d="M46.1315 53.788C43.1622 55.5059 35.74 56.4635 32.4811 55.2637C32.2413 46.8822 31.771 23.1742 33.2805 13.1442L38.6914 15.3577L38.1995 21.9985C35.6126 27.6793 43.1244 47.4655 46.1315 53.788Z" fill="#E6E6E6"/>
<path d="M45.7007 27.9014L42.3802 26.7946L37.9531 21.7525L38.691 15.3577L46.0696 25.6878L45.7007 27.9014Z" fill="#E6E6E6"/>
<path d="M35.2952 32.688C35.3495 32.9264 35.4962 33.1336 35.703 33.264C35.9098 33.3945 36.16 33.4376 36.3985 33.3839L39.2171 32.7456L38.8097 30.9465L35.9911 31.5847C35.7525 31.6388 35.5452 31.7854 35.4147 31.9923C35.2842 32.1992 35.2412 32.4494 35.2952 32.688Z" fill="#FFB9B9"/>
<path d="M34.0179 7.36421C31.9004 6.4935 29.8091 6.43049 27.7461 7.24123L26.8853 4.16681H34.7558L34.0179 7.36421Z" fill="#2F2E41"/>
<path d="M37.8306 30.6069L39.4293 33.5583C42.1182 32.8083 44.4487 30.444 46.6849 27.6554L46.07 25.6878L42.2577 26.6716L37.8306 30.6069Z" fill="#E6E6E6"/>
<path d="M36.6621 24.5195H36.1702C36.1702 17.5622 34.7377 12.7138 33.3417 12.7138L33.2188 12.2219C34.4707 12.2219 35.2688 14.2397 35.7179 15.9326C36.3268 18.2275 36.6621 21.2771 36.6621 24.5195Z" fill="#3F3D56"/>
<path d="M25.3479 22.7978H24.856C24.856 16.426 26.2984 12.4678 28.4223 12.4678L28.2993 12.9597C26.8302 12.9597 25.3479 16.0017 25.3479 22.7978Z" fill="#3F3D56"/>
<path d="M36.4158 25.8723C37.095 25.8723 37.6456 25.3217 37.6456 24.6425C37.6456 23.9633 37.095 23.4127 36.4158 23.4127C35.7366 23.4127 35.186 23.9633 35.186 24.6425C35.186 25.3217 35.7366 25.8723 36.4158 25.8723Z" fill="#3F3D56"/>
<path d="M23.3806 25.7493H22.8887C22.8887 23.9862 23.8817 22.5519 25.1023 22.5519V23.0438C24.1529 23.0438 23.3806 24.2575 23.3806 25.7493Z" fill="#3F3D56"/>
<path d="M27.3156 25.7493H26.8237C26.8237 24.2575 26.0514 23.0438 25.1021 23.0438V22.5519C26.3226 22.5519 27.3156 23.9862 27.3156 25.7493Z" fill="#3F3D56"/>
<path d="M27.07 26.3641C27.3417 26.3641 27.5619 26.1439 27.5619 25.8722C27.5619 25.6005 27.3417 25.3803 27.07 25.3803C26.7984 25.3803 26.5781 25.6005 26.5781 25.8722C26.5781 26.1439 26.7984 26.3641 27.07 26.3641Z" fill="#3F3D56"/>
<path d="M23.135 26.3641C23.4066 26.3641 23.6269 26.1439 23.6269 25.8722C23.6269 25.6005 23.4066 25.3803 23.135 25.3803C22.8633 25.3803 22.6431 25.6005 22.6431 25.8722C22.6431 26.1439 22.8633 26.3641 23.135 26.3641Z" fill="#3F3D56"/>
<path d="M16.9854 21.3489L20.0545 21.8969L27.0695 31.8714L23.3427 30.9945L16.9854 21.3489Z" fill="#6C63FF"/>
<path d="M16.4412 21.2267C16.3944 21.2274 16.3487 21.2407 16.3088 21.2651C16.2689 21.2896 16.2363 21.3242 16.2144 21.3656C16.1925 21.4069 16.1822 21.4534 16.1844 21.5001C16.1866 21.5468 16.2013 21.5921 16.227 21.6312L22.7842 31.5801C22.8208 31.6357 22.8773 31.6752 22.9422 31.6904L25.993 32.4082C26.0445 32.4203 26.0984 32.4165 26.1476 32.3973C26.1968 32.378 26.239 32.3443 26.2686 32.3005C26.2982 32.2567 26.3138 32.205 26.3133 32.1521C26.3128 32.0993 26.2963 32.0479 26.2659 32.0046L19.0665 21.768C19.0469 21.7401 19.0221 21.7163 18.9934 21.698C18.9647 21.6797 18.9326 21.6673 18.8991 21.6614L16.4904 21.2312C16.4741 21.2283 16.4577 21.2268 16.4412 21.2267Z" fill="#3F3D56"/>
<path d="M20.5317 28.3401L20.714 30.1758L23.5898 29.8903C23.8332 29.8662 24.057 29.7463 24.2121 29.5571C24.3671 29.3679 24.4407 29.1248 24.4165 28.8814C24.3923 28.638 24.2725 28.4141 24.0833 28.2591C23.8941 28.1041 23.651 28.0305 23.4076 28.0547L20.5317 28.3401Z" fill="#FFB9B9"/>
<path d="M18.0308 28.1275C18.0349 28.7534 18.2863 29.3523 18.7301 29.7937C19.174 30.2351 19.7742 30.4832 20.4002 30.4839H20.873L21.2173 27.615L18.3669 26.5889L18.0308 28.1275Z" fill="#E6E6E6"/>
<path d="M4.32575 68.3181C6.28859 70.9467 10.3631 71.2234 10.3631 71.2234C10.3631 71.2234 11.2552 67.2382 9.29231 64.6095C7.32947 61.9808 3.25499 61.7042 3.25499 61.7042C3.25499 61.7042 2.36291 65.6894 4.32575 68.3181Z" fill="#E6E6E6"/>
<path d="M14.3248 69.3062C13.0296 71.0408 10.341 71.2234 10.341 71.2234C10.341 71.2234 9.75232 68.5936 11.0475 66.8591C12.3428 65.1245 15.0314 64.9419 15.0314 64.9419C15.0314 64.9419 15.6201 67.5716 14.3248 69.3062Z" fill="#E6E6E6"/>
<path d="M71.6224 77.2223H0.898926V77.5273H71.6224V77.2223Z" fill="#3F3D56"/>
</svg>
