<svg width="95" height="80" viewBox="0 0 95 80" fill="none" xmlns="http://www.w3.org/2000/svg">
<g clip-path="url(#clip0_1_1384)">
<path d="M90.0672 75.7787C88.7569 78.2131 85.9759 79.2581 85.9759 79.2581C85.9759 79.2581 85.3194 76.3562 86.6297 73.9218C87.9401 71.4874 90.721 70.4423 90.721 70.4423C90.721 70.4423 91.3775 73.3442 90.0672 75.7787Z" fill="#2F2E41"/>
<path d="M89.1665 74.9778C86.8008 76.4036 85.8897 79.2357 85.8897 79.2357C85.8897 79.2357 88.8141 79.756 91.1798 78.3302C93.5454 76.9044 94.4565 74.0723 94.4565 74.0723C94.4565 74.0723 91.5321 73.552 89.1665 74.9778Z" fill="#0078D4"/>
<path d="M36.1328 4.29254H50.8916V4.50378H36.1328V4.29254Z" fill="#F2F2F2"/>
<path d="M40.1386 4.45099H40.3499V6.40494H40.1386V4.45099Z" fill="#F2F2F2"/>
<path d="M46.5688 4.45099H46.78V6.40494H46.5688V4.45099Z" fill="#F2F2F2"/>
<path d="M28.648 14.4319H43.4069V14.6432H28.648V14.4319Z" fill="#F2F2F2"/>
<path d="M39.1898 12.5308H39.401V14.4848H39.1898V12.5308Z" fill="#F2F2F2"/>
<path d="M32.7589 12.5308H32.9701V14.4848H32.7589V12.5308Z" fill="#F2F2F2"/>
<path d="M9.03975 19.1848H23.7986V19.3961H9.03975V19.1848Z" fill="#F2F2F2"/>
<path d="M19.5815 17.2837H19.7927V19.2376H19.5815V17.2837Z" fill="#F2F2F2"/>
<path d="M13.1509 17.2837H13.3622V19.2376H13.1509V17.2837Z" fill="#F2F2F2"/>
<path d="M10.5157 68.192H25.2745V68.4033H10.5157V68.192Z" fill="#F2F2F2"/>
<path d="M21.0574 66.2909H21.2687V68.2448H21.0574V66.2909Z" fill="#F2F2F2"/>
<path d="M14.6264 66.2909H14.8376V68.2448H14.6264V66.2909Z" fill="#F2F2F2"/>
<path d="M35.7109 34.2883H50.4697V34.4996H35.7109V34.2883Z" fill="#F2F2F2"/>
<path d="M46.2526 32.3872H46.4639V34.3412H46.2526V32.3872Z" fill="#F2F2F2"/>
<path d="M39.8221 32.3872H40.0333V34.3412H39.8221V32.3872Z" fill="#F2F2F2"/>
<path d="M31.0723 59.7426H45.8312V59.9538H31.0723V59.7426Z" fill="#F2F2F2"/>
<path d="M41.6141 57.8414H41.8253V59.7953H41.6141V57.8414Z" fill="#F2F2F2"/>
<path d="M35.1835 57.8414H35.3948V59.7953H35.1835V57.8414Z" fill="#F2F2F2"/>
<path d="M7.4587 52.0323H22.2175V52.2436H7.4587V52.0323Z" fill="#F2F2F2"/>
<path d="M18.0004 50.1312H18.2117V52.0852H18.0004V50.1312Z" fill="#F2F2F2"/>
<path d="M11.5694 50.1312H11.7806V52.0852H11.5694V50.1312Z" fill="#F2F2F2"/>
<path d="M56.2878 74.664H81.2499V74.4841H56.4675V65.7579H79.1514L80.2533 63.4578L80.0914 63.3799L79.0384 65.5779H56.2878V74.664Z" fill="#2F2E41"/>
<path d="M77.9276 79.0721C76.8861 79.0721 76.0418 78.2262 76.0418 77.1829C76.0418 76.1395 76.8861 75.2937 77.9276 75.2937C78.9691 75.2937 79.8134 76.1395 79.8134 77.1829C79.8134 78.2262 78.9691 79.0721 77.9276 79.0721Z" fill="#3F3D56"/>
<path d="M59.3408 79.0721C58.2993 79.0721 57.455 78.2262 57.455 77.1829C57.455 76.1395 58.2993 75.2937 59.3408 75.2937C60.3823 75.2937 61.2266 76.1395 61.2266 77.1829C61.2266 78.2262 60.3823 79.0721 59.3408 79.0721Z" fill="#3F3D56"/>
<path d="M37.4316 38.2299C36.7869 38.2299 36.2642 37.7063 36.2642 37.0604C36.2642 36.4145 36.7869 35.8909 37.4316 35.8909C38.0763 35.8909 38.599 36.4145 38.599 37.0604C38.599 37.7063 38.0763 38.2299 37.4316 38.2299Z" fill="#3F3D56"/>
<path d="M53.6183 62.7891H81.6757L87.7467 42.9078H47.3661L47.4028 43.0248L53.6183 62.7891ZM81.5429 62.6092H53.75L47.6109 43.0877H87.504L81.5429 62.6092Z" fill="#2F2E41"/>
<path d="M55.8082 61.7546H80.4521L85.7844 44.1223H50.3167L50.349 44.2261L55.8082 61.7546Z" fill="#F2F2F2"/>
<path d="M46.8626 41.1317L47.0363 41.0855L45.8511 36.6105H38.9572V36.7905H45.7129L46.8626 41.1317Z" fill="#2F2E41"/>
<path d="M49.384 48.9352H85.7849V49.1151H49.384V48.9352Z" fill="#2F2E41"/>
<path d="M51.4685 55.5638H83.7606V55.7437H51.4685V55.5638Z" fill="#2F2E41"/>
<path d="M67.4667 42.9977H67.6466V62.6992H67.4667V42.9977Z" fill="#2F2E41"/>
<path d="M59.4267 42.992L60.7158 62.6931L60.5363 62.7048L59.2471 43.0038L59.4267 42.992Z" fill="#2F2E41"/>
<path d="M75.6825 42.9919L75.8621 43.0036L74.5804 62.7052L74.4008 62.6935L75.6825 42.9919Z" fill="#2F2E41"/>
<path d="M2.28882e-05 79.1862H94.4565V79.3974H2.28882e-05V79.1862Z" fill="#2F2E41"/>
<path d="M31.6879 7.03528C31.6879 7.03528 30.1467 11.4297 31.0951 12.1058C32.0435 12.7818 27.8941 18.303 27.8941 18.303L22.9148 16.9509L25.6416 12.3311C25.6416 12.3311 25.9972 7.71134 25.9972 7.03527C25.9972 6.35921 31.6879 7.03528 31.6879 7.03528Z" fill="#A0616A"/>
<path opacity="0.1" d="M31.6879 7.03528C31.6879 7.03528 30.1467 11.4297 31.0951 12.1058C32.0435 12.7818 27.8941 18.303 27.8941 18.303L22.9148 16.9509L25.6416 12.3311C25.6416 12.3311 25.9972 7.71134 25.9972 7.03527C25.9972 6.35921 31.6879 7.03528 31.6879 7.03528Z" fill="black"/>
<path d="M34.2745 38.3596C34.2745 38.3596 34.7244 43.9934 34.2745 46.923C33.8247 49.8526 33.1499 57.9654 33.1499 57.9654C33.1499 57.9654 33.1499 73.2895 30.6757 73.5149C28.2014 73.7402 26.402 73.9656 26.1771 73.0642C25.9521 72.1627 27.3017 71.712 26.6269 71.2613C25.9521 70.8106 25.7272 69.2331 26.6269 67.4303C27.5266 65.6275 26.6269 47.3737 26.6269 47.3737L22.3532 58.8668C22.3532 58.8668 21.9034 68.3317 21.4535 69.6838C21.0037 71.036 21.9034 73.5149 20.3289 73.7402C18.7544 73.9656 16.9549 72.6134 16.0552 72.1627C15.1555 71.712 17.4048 71.712 16.9549 71.4867C16.505 71.2613 15.1555 70.5852 15.6053 70.3599C16.0552 70.1345 16.5051 59.3175 16.5051 59.3175C16.5051 59.3175 17.7422 36.2187 19.3167 35.3173C20.8912 34.4159 21.9034 35.9685 21.9034 35.9685L34.2745 38.3596Z" fill="#2F2E41"/>
<path d="M30.2258 72.6135V74.4163C30.2258 74.4163 32.2504 79.317 30.2258 79.317C28.2013 79.317 26.6266 79.8248 26.6266 79.1487V73.0642L30.2258 72.6135Z" fill="#2F2E41"/>
<path d="M16.9545 72.6102V74.4131C16.9545 74.4131 14.93 79.3137 16.9545 79.3137C18.9791 79.3137 20.5537 79.8216 20.5537 79.1455V73.0609L16.9545 72.6102Z" fill="#2F2E41"/>
<path d="M28.5385 10.3029C26.3023 10.3029 24.4894 8.48685 24.4894 6.24657C24.4894 4.00629 26.3023 2.19019 28.5385 2.19019C30.7748 2.19019 32.5876 4.00629 32.5876 6.24657C32.5876 8.48685 30.7748 10.3029 28.5385 10.3029Z" fill="#A0616A"/>
<path d="M29.7759 13.7959C29.7759 13.7959 28.6512 17.1762 26.8516 16.5002L25.052 15.8241L21.9027 37.4581C21.9027 37.4581 24.3771 41.0638 27.9763 38.8103C31.5755 36.5567 29.7759 13.7959 29.7759 13.7959Z" fill="#0078D4"/>
<path d="M26.6267 13.1199L25.6144 10.979C25.6144 10.979 19.6533 13.7959 18.7535 14.6974C17.8537 15.5988 17.8537 16.9509 17.8537 16.9509L19.4283 22.5848C19.4283 22.5848 18.9784 34.9793 18.9784 35.43C18.9784 35.8807 17.4038 38.3596 18.5285 37.4582C19.6533 36.5567 19.8782 35.6553 20.778 37.0075C21.6778 38.3596 23.7024 39.9371 23.7024 39.9371L26.6267 13.1199Z" fill="#3F3D56"/>
<path d="M18.7539 29.3454L19.4287 35.6553C19.4287 35.6553 23.4778 39.261 22.578 39.4864C21.6782 39.7117 21.2283 38.8103 21.2283 38.8103C21.2283 38.8103 19.6537 40.3878 18.7539 39.4864C17.8541 38.5849 15.6046 30.0215 15.6046 30.0215L18.7539 29.3454Z" fill="#A0616A"/>
<path d="M28.4523 0.513717C29.3499 0.48157 30.3105 0.465667 31.0674 0.950262C31.4156 1.19346 31.721 1.49298 31.9711 1.83657C32.7083 2.77008 33.3452 3.94464 33.0714 5.10287L32.7533 4.97862C32.7533 5.28779 32.822 5.59309 32.9542 5.87244C32.9094 5.74199 32.7594 5.95287 32.7996 6.08482L33.1499 7.23614C32.574 7.02465 31.8577 7.45286 31.77 8.06099C31.73 6.72372 31.5915 5.1903 30.5087 4.40728C29.9626 4.0124 29.2715 3.89186 28.6066 3.78481C27.9931 3.68606 27.3501 3.59189 26.7625 3.7942C26.175 3.99651 25.6746 4.59849 25.8078 5.20642C25.5369 5.11293 25.2339 5.30208 25.1 5.55587C24.9661 5.80966 24.9591 6.10905 24.9551 6.39608C24.6663 6.60054 24.3376 6.19453 24.2199 5.86047C23.9437 5.07632 23.6981 4.24161 23.847 3.42352C23.9958 2.60544 24.6612 1.82363 25.4913 1.82086C25.3905 1.70999 25.3368 1.56422 25.3414 1.41436L26.0255 1.35645C25.8519 1.33181 25.6921 1.24744 25.5737 1.1178C25.8484 1.4206 28.0081 0.529624 28.4523 0.513717Z" fill="#2F2E41"/>
<path d="M28.6513 12.4438C28.6513 12.4438 30.4823 10.6461 31.1413 10.7562C31.8003 10.8663 32.7 12.4438 32.7 12.4438C32.7 12.4438 38.0983 14.2466 37.8734 16.0495C37.6485 17.8523 35.1742 26.6411 35.1742 26.6411C35.1742 26.6411 33.1499 37.2328 34.9493 38.3596C36.7488 39.4863 26.402 42.416 26.177 41.0638C25.9521 39.7117 25.5022 26.1904 26.177 24.1622C26.8518 22.1341 28.6513 12.4438 28.6513 12.4438Z" fill="#3F3D56"/>
<path d="M20.7789 16.0494H17.9974C17.9974 16.0494 16.055 24.6129 15.83 25.5143C15.6051 26.4157 15.1552 30.6975 15.3801 30.6975C15.6051 30.6975 20.1041 29.7961 20.1041 30.4721L20.7789 16.0494Z" fill="#3F3D56"/>
<path d="M20.8732 37.2554H31.5206C32.5596 32.4666 32.6465 27.8398 31.5206 23.4193H20.8732C22.5914 27.7603 22.6988 32.3554 20.8732 37.2554Z" fill="#F2F2F2"/>
<path d="M35.8492 31.3736L32.6999 32.7257C32.6999 32.7257 26.6263 33.6271 26.6263 31.1482C26.6263 28.6693 32.6999 30.0214 32.6999 30.0214L34.7246 29.3729L35.8492 31.3736Z" fill="#A0616A"/>
<path d="M35.174 14.6973L37.8734 15.3734L39.898 27.3172C39.898 27.3172 40.5728 30.4721 39.4481 30.6975C38.3233 30.9228 35.174 32.7257 35.174 32.7257C35.174 32.7257 34.7241 29.3454 33.8243 29.3454L36.0738 27.5425L34.7241 19.6551L35.174 14.6973Z" fill="#3F3D56"/>
<path d="M73.3459 37.7737H88.1047V37.985H73.3459V37.7737Z" fill="#F2F2F2"/>
<path d="M83.8876 35.8726H84.0989V37.8266H83.8876V35.8726Z" fill="#F2F2F2"/>
<path d="M77.4571 35.8726H77.6683V37.8266H77.4571V35.8726Z" fill="#F2F2F2"/>
<path d="M68.1807 6.51056H82.9396V6.7218H68.1807V6.51056Z" fill="#F2F2F2"/>
<path d="M72.1862 6.66895H72.3975V8.6229H72.1862V6.66895Z" fill="#F2F2F2"/>
<path d="M78.6169 6.66895H78.8281V8.6229H78.6169V6.66895Z" fill="#F2F2F2"/>
<path d="M53.3162 27.3175H68.0751V27.5287H53.3162V27.3175Z" fill="#F2F2F2"/>
<path d="M57.3218 27.4759H57.5331V29.4298H57.3218V27.4759Z" fill="#F2F2F2"/>
<path d="M63.7524 27.4759H63.9636V29.4298H63.7524V27.4759Z" fill="#F2F2F2"/>
<path d="M78.4063 27.2119H93.1652V27.4231H78.4063V27.2119Z" fill="#F2F2F2"/>
<path d="M82.4118 27.3703H82.623V29.3243H82.4118V27.3703Z" fill="#F2F2F2"/>
<path d="M88.8424 27.3703H89.0536V29.3243H88.8424V27.3703Z" fill="#F2F2F2"/>
<path d="M60.6956 16.65H75.4545V16.8612H60.6956V16.65Z" fill="#F2F2F2"/>
<path d="M71.2375 14.7488H71.4487V16.7028H71.2375V14.7488Z" fill="#F2F2F2"/>
<path d="M64.8065 14.7488H65.0177V16.7028H64.8065V14.7488Z" fill="#F2F2F2"/>
</g>
<defs>
<clipPath id="clip0_1_1384">
<rect width="94.4565" height="79" fill="white" transform="matrix(-1 0 0 1 94.4565 0.5)"/>
</clipPath>
</defs>
</svg>
