<svg width="85" height="104" viewBox="0 0 85 104" fill="none" xmlns="http://www.w3.org/2000/svg">
<g clip-path="url(#clip0_1_1458)">
<path d="M77.2934 91.5907C77.2692 91.5907 77.2449 91.5905 77.2207 91.5902L13.1591 90.8422C9.51795 90.7952 6.58521 87.8014 6.61082 84.1634C2.08818 69.1607 0.0954598 57.3466 0.149951 45.8605C0.206842 33.8721 2.57547 21.677 7.60373 7.48462C7.66215 3.87093 10.6252 0.961182 14.2351 0.961182C14.2584 0.961182 14.2818 0.961328 14.3051 0.961545L78.3669 1.71103C82.0163 1.7581 84.9529 4.76453 84.9134 8.41285V8.41299L84.7837 19.5248L84.6874 19.5259L83.9226 85.0437C83.8757 88.6687 80.9088 91.5907 77.2934 91.5907ZM14.235 1.25917C10.7793 1.25917 7.94464 4.0507 7.90135 7.51321L7.90106 7.53787L7.89277 7.56108C-1.70949 34.6523 -1.96863 54.6809 6.9027 84.0989L6.90925 84.1207L6.90903 84.1436C6.87273 87.6279 9.67808 90.4993 13.1627 90.5442L77.224 91.2922C77.2472 91.2925 77.2704 91.2927 77.2935 91.2927C80.7463 91.2927 83.5799 88.5021 83.6246 85.04L84.3308 24.5724L84.3338 24.2746L84.4158 17.3606L84.5108 17.3598L84.6154 8.4095C84.6532 4.92531 81.8484 2.05397 78.3632 2.00901L14.3018 1.25953C14.2797 1.25932 14.257 1.25917 14.235 1.25917Z" fill="#F2F2F2"/>
<path d="M71.6023 64.7429L71.5978 65.0409H35.0049V64.7429H71.6023Z" fill="#F2F2F2"/>
<path d="M71.6753 58.4107L71.6723 58.7087H35.0049V58.4107H71.6753Z" fill="#F2F2F2"/>
<path d="M71.7498 52.0784L71.7468 52.3764H35.0049V52.0784H71.7498Z" fill="#F2F2F2"/>
<path d="M71.5203 71.6563L71.5173 71.9543H34.1884V40.6804L34.4863 40.6834V59.3985C34.4863 61.3146 34.9259 63.1279 35.7096 64.743C35.7587 64.8428 35.8079 64.9426 35.8601 65.0409C37.9013 68.9714 42.0105 71.6563 46.7456 71.6563H71.5203Z" fill="#F2F2F2"/>
<path d="M19.754 87.2037C16.1793 87.1579 13.3163 84.2272 13.3541 80.6524C4.84051 52.4215 4.30734 32.3454 14.3455 4.022C14.3655 2.89482 14.683 1.79299 15.2657 0.827964L14.0051 0.813173C10.4304 0.775478 7.49963 3.63843 7.45366 7.21306C-2.5845 35.5366 -2.05131 55.6125 6.46225 83.8435C6.42447 87.4182 9.2875 90.3489 12.8622 90.3948L76.9239 91.1437C79.2402 91.1629 81.3892 89.9395 82.555 87.9378L19.754 87.2037Z" fill="#F2F2F2"/>
<path d="M29.2859 53.4433C29.388 54.0847 28.8651 54.6826 28.2159 54.6641L26.0613 59.5203L24.5715 59.2546L27.1728 53.5055C27.2153 53.0268 27.5791 52.6212 28.0754 52.5471C28.6571 52.4604 29.1991 52.8616 29.2859 53.4433Z" fill="#FFB6B6"/>
<path d="M17.6244 68.3628L17.6244 68.3628C18.2393 68.9988 19.2354 69.0672 19.9315 68.5212L25.0293 64.5223L27.5551 56.6678L25.7187 55.8184L22.2687 62.6993L17.8813 65.7441C17.0067 66.3512 16.8844 67.5974 17.6244 68.3628V68.3628Z" fill="#6C63FF"/>
<path d="M18.7332 65.6354C18.6006 65.5445 18.4591 65.4641 18.3131 65.3955C18.3161 65.3568 18.3175 65.3166 18.3175 65.2778C18.325 64.886 18.2475 64.4941 18.0896 64.135C18.1104 64.4509 18.0136 64.7727 17.8229 65.0245C17.7901 65.0692 17.7543 65.111 17.7156 65.1512C17.7052 65.1616 17.6947 65.172 17.6843 65.181C17.4742 65.1333 17.2567 65.111 17.0407 65.1139C16.8008 65.1184 16.5624 65.1512 16.3255 65.1974C16.029 65.254 15.734 65.3329 15.439 65.3985C15.4211 65.403 15.4047 65.406 15.3868 65.4104C15.2512 65.0424 15.0382 64.7057 14.761 64.4286C14.8937 64.7146 14.9205 65.0499 14.8341 65.3538C14.8192 65.4074 14.8013 65.4596 14.7789 65.5103C14.4571 65.543 14.1353 65.5341 13.8269 65.4447C13.6957 65.4074 13.5721 65.3568 13.4514 65.2972C13.0253 65.0886 12.6409 64.7787 12.2013 64.5925C11.9644 64.4911 11.7141 64.4286 11.4579 64.4032C11.2433 63.174 11.3029 62.0834 11.9615 61.2952C11.9615 59.4969 13.4201 58.0382 15.2185 58.0382L16.7114 58.5567L18.2192 59.0812C18.9284 60.9734 20.0563 62.6391 18.7332 65.6354Z" fill="#2F2E41"/>
<path d="M21.1367 99.7022L22.1579 100.187L24.5536 96.3903L23.0464 95.6755L21.1367 99.7022Z" fill="#FFB6B6"/>
<path d="M23.5919 102.429L22.5015 100.54L22.848 99.8096L22.4874 99.6637L21.3684 99.2136L21.0944 99.1027L19.6552 101.582L20.4215 101.945L20.901 101.286L20.9073 102.175L22.9377 103.138C23.19 103.258 23.4917 103.15 23.6108 102.898C23.6819 102.748 23.6748 102.573 23.5919 102.429Z" fill="#2F2E41"/>
<path d="M36.218 85.2436L37.0326 84.4601L34.3308 80.8752L33.1285 82.0316L36.218 85.2436Z" fill="#FFB6B6"/>
<path d="M39.6381 83.9133L37.4853 84.2641L36.9246 83.6812L36.6605 83.9668L35.8433 84.8539L35.6425 85.0708L37.4511 87.2947L38.0618 86.7065L37.6161 86.025L38.4498 86.334L40.0695 84.7763C40.2706 84.5826 40.2762 84.2622 40.0832 84.0617C39.9682 83.9422 39.802 83.8867 39.6381 83.9133Z" fill="#2F2E41"/>
<path d="M18.9642 78.7484L14.9413 77.8544L14.9683 79.0784C14.9683 79.0784 10.7695 82.3243 14.6433 85.4531C18.5172 88.582 25.0729 88.88 25.0729 88.88L22.093 97.5216L23.583 98.1176L29.4493 90.1065C30.2392 88.6702 30.0159 86.8605 28.8392 85.7194C28.6115 85.4987 28.3508 85.3041 28.0528 85.1551C26.2649 84.2612 21.4971 82.4732 21.4971 82.4732L19.1132 80.0893L18.9642 78.7484Z" fill="#2F2E41"/>
<path d="M18.8152 80.9833L27.0779 75.7252C28.005 75.1352 29.2125 75.2399 30.0244 75.9806L36.2475 82.7712L34.6086 84.1122L28.2018 79.6424C28.2018 79.6424 24.477 83.8142 23.434 83.8142C22.391 83.8142 18.8152 80.9833 18.8152 80.9833H18.8152Z" fill="#2F2E41"/>
<path d="M14.3453 81.408C14.3453 81.408 11.8076 79.9696 13.002 78.7519C14.1963 77.5341 14.3453 73.6837 14.3453 73.6837L12.4084 67.8495L13.8983 66.8065L14.3453 65.0409L17.0272 64.8919V66.2106L19.7138 69.185C20.6267 70.1957 20.9025 71.6301 20.4294 72.9073L19.7091 74.8522C19.7091 74.8522 21.795 80.365 20.0071 81.11C18.2192 81.8549 14.3453 81.408 14.3453 81.408Z" fill="#6C63FF"/>
<path d="M27.7663 60.0679L20.7193 53.7792C19.6548 52.8353 19.5571 51.2072 20.501 50.1428C21.4448 49.0784 23.0729 48.9806 24.1374 49.9245L24.1495 49.9354L31.1965 56.2241C32.2549 57.1747 32.3423 58.8033 31.3918 59.8618C30.4455 60.9155 28.8259 61.0076 27.7663 60.0679H27.7663Z" fill="#F2F2F2"/>
<path d="M16.3186 64.3984C17.798 64.3984 18.9974 63.1991 18.9974 61.7196C18.9974 60.2402 17.798 59.0408 16.3186 59.0408C14.8391 59.0408 13.6398 60.2402 13.6398 61.7196C13.6398 63.1991 14.8391 64.3984 16.3186 64.3984Z" fill="#FFB6B6"/>
<path d="M17.7141 61.1671C17.6947 60.8557 17.6188 60.5472 17.4936 60.2612C17.5145 60.577 17.4176 60.8989 17.2269 61.1507C17.2224 61.1566 17.218 61.1611 17.215 61.1671C16.7226 61.4062 15.8923 61.271 15.0903 61.1671V58.1872H16.7293C18.3384 57.6448 19.663 58.8249 19.7091 61.1671C18.9371 61.3069 18.2135 61.3835 17.7141 61.1671Z" fill="#2F2E41"/>
<path d="M16.3254 65.1974C16.029 65.254 15.7339 65.333 15.4389 65.3985C15.4211 65.403 15.4047 65.406 15.3868 65.4104C15.2512 65.0424 15.0381 64.7057 14.761 64.4286C14.8936 64.7146 14.9204 65.0499 14.834 65.3538C14.8191 65.4075 14.8012 65.4596 14.7789 65.5103C14.4571 65.5431 14.1352 65.5341 13.8268 65.4447C13.6957 65.4075 13.572 65.3568 13.4514 65.2972V58.9322H16.5802C15.3659 61.0002 15.1931 63.0861 16.3254 65.1974Z" fill="#2F2E41"/>
<path d="M15.7343 57.7481C15.6771 57.569 15.4591 57.4837 15.2734 57.5125C15.0877 57.5414 14.9277 57.6547 14.7754 57.7648C14.9237 57.6033 14.8482 57.3185 14.6667 57.1956C14.4851 57.0726 14.2424 57.0811 14.0328 57.1456C13.8232 57.21 13.6323 57.3237 13.4276 57.4022C13.2229 57.4808 12.9895 57.5225 12.7867 57.439C12.8657 57.6873 13.0183 57.9117 13.2202 58.0763C12.9813 58.0345 12.7225 58.1583 12.6051 58.3705C12.4877 58.5827 12.5204 58.8678 12.6827 59.0479C12.8691 59.2547 13.1843 59.3032 13.455 59.2383C13.7256 59.1734 13.9625 59.0138 14.1907 58.8544C14.4189 58.695 14.6507 58.5301 14.9177 58.4516L14.0399 59.0037C14.4882 58.8169 14.9232 58.5981 15.3404 58.3495C15.4519 58.283 15.5645 58.2124 15.646 58.1113C15.7275 58.0103 15.7738 57.8718 15.7343 57.7481Z" fill="#2F2E41"/>
<path d="M11.5975 84.5134C11.5773 83.8517 12.1695 83.3824 12.7749 83.2611C13.5441 83.1069 14.3294 83.5036 14.9811 83.864C16.1459 84.5081 17.4972 83.8694 18.7417 84.6513C20.5788 85.8056 20.9582 84.0766 20.8425 82.0353C20.7572 80.5298 21.1218 79.0513 21.1995 77.5702C21.2743 76.144 21.6627 74.6949 22.8718 73.8089C23.3794 73.4369 24.0117 73.2168 24.642 73.3473C25.3152 73.4867 25.853 73.9705 26.5017 74.1811C27.7088 74.5731 28.9783 74.0442 29.8836 73.2377C30.9365 72.2996 31.4506 70.9803 31.8124 69.6497C32.1876 68.27 32.4167 66.8254 33.1046 65.5545C33.6915 64.4699 34.6135 63.4689 35.8842 63.2621C37.1293 63.0594 38.3222 63.6698 39.3968 64.2164C40.5028 64.779 41.6462 65.3885 42.9133 65.441C45.6287 65.5534 47.7262 63.2431 48.903 61.0465C50.2462 58.5393 51.025 55.497 53.4113 53.7244C54.437 52.9626 55.7384 52.4307 57.0343 52.6441C58.3439 52.8599 59.3007 53.8098 60.1705 54.7383C61.0614 55.6893 61.946 56.6262 63.153 57.1739C64.3376 57.7114 65.6611 57.9128 66.9514 57.7425C67.5746 57.6603 68.1708 57.4896 68.7474 57.2405C69.0107 57.1267 68.7833 56.7416 68.5218 56.8546C67.2573 57.4008 65.818 57.4954 64.4839 57.1667C63.1436 56.8365 62.0755 56.0868 61.1291 55.1053C60.2625 54.2066 59.4479 53.1836 58.3144 52.6061C57.1678 52.022 55.8531 52.0369 54.6697 52.5082C53.4698 52.986 52.4303 53.8313 51.6421 54.8475C50.7265 56.028 50.1175 57.4116 49.5055 58.764C48.3992 61.2084 46.9809 64.0949 44.1506 64.8547C41.4707 65.574 39.4879 63.2027 36.9882 62.8262C35.7592 62.6412 34.5962 63.0667 33.726 63.9444C32.825 64.8532 32.3042 66.0551 31.9601 67.2692C31.5386 68.7569 31.3215 70.3504 30.5474 71.7125C29.9354 72.7893 28.802 73.7879 27.514 73.8626C26.7762 73.9053 26.2113 73.5649 25.5807 73.236C25.0121 72.9395 24.4185 72.7869 23.7796 72.9116C22.5828 73.1451 21.653 74.2027 21.1959 75.2808C20.0686 77.9401 21.621 81.3574 19.4142 83.6313C19.0108 84.0469 18.4935 84.3594 17.9094 84.423C17.1268 84.5082 16.3951 84.1439 15.7317 83.7744C14.5859 83.136 13.1351 82.2825 11.8792 83.1685C11.4335 83.4828 11.1335 83.9573 11.1505 84.5134C11.1593 84.8004 11.6063 84.8016 11.5975 84.5134H11.5975Z" fill="#3F3D56"/>
<path d="M56.2127 53.5684C56.9532 53.5684 57.5536 52.968 57.5536 52.2274C57.5536 51.4868 56.9532 50.8865 56.2127 50.8865C55.4721 50.8865 54.8717 51.4868 54.8717 52.2274C54.8717 52.968 55.4721 53.5684 56.2127 53.5684Z" fill="#6C63FF"/>
<path d="M43.6971 66.2329C44.4377 66.2329 45.0381 65.6325 45.0381 64.8919C45.0381 64.1513 44.4377 63.551 43.6971 63.551C42.9566 63.551 42.3562 64.1513 42.3562 64.8919C42.3562 65.6325 42.9566 66.2329 43.6971 66.2329Z" fill="#6C63FF"/>
<path d="M36.0509 24.3518C36.8732 22.6452 39.0067 21.6947 40.8254 22.2247C41.85 22.5233 42.7093 23.2093 43.6514 23.7106C44.5934 24.2119 45.7621 24.5233 46.7098 24.0326C48.3387 23.1891 48.2393 20.6709 49.6561 19.5058C50.5991 18.7303 51.9828 18.7666 53.1483 19.1301C54.3138 19.4937 55.3797 20.1356 56.5528 20.4739C58.7358 21.1035 61.2181 20.574 62.9542 19.1085C62.9715 19.0938 62.9887 19.079 63.0055 19.0642C63.865 18.307 65.2119 18.931 65.1804 20.076L64.9606 28.0612H36.2047L36.0509 24.3518Z" fill="#F2F2F2"/>
<path d="M61.2878 22.9128C61.3826 22.8743 61.3826 22.7416 61.2878 22.7032C60.6267 22.435 59.8864 22.0532 59.3206 21.638C59.23 21.5715 59.109 21.6631 59.1472 21.7688L59.4693 22.6589H53.9589V22.9569H59.4693L59.1472 23.8474C59.109 23.9531 59.23 24.0447 59.3206 23.9782C59.8864 23.563 60.6267 23.1811 61.2878 22.9128H61.2878Z" fill="#3F3D56"/>
<path d="M48.8906 21.4776C48.9427 21.3897 48.8623 21.284 48.7637 21.3108C48.0752 21.4977 47.2548 21.6421 46.5531 21.6541C46.4407 21.656 46.3999 21.8023 46.4943 21.8632L47.2896 22.3767L42.904 25.713L43.0844 25.9502L47.47 22.6139L47.7528 23.5176C47.7864 23.6248 47.9382 23.6245 47.97 23.5167C48.1689 22.8436 48.5269 22.0915 48.8906 21.4777L48.8906 21.4776Z" fill="#3F3D56"/>
<path d="M63.9698 21.0551C65.3805 21.0551 66.524 19.9115 66.524 18.5009C66.524 17.0903 65.3805 15.9467 63.9698 15.9467C62.5592 15.9467 61.4156 17.0903 61.4156 18.5009C61.4156 19.9115 62.5592 21.0551 63.9698 21.0551Z" fill="#6C63FF"/>
<path opacity="0.7" d="M51.4543 21.0551C52.865 21.0551 54.0085 19.9115 54.0085 18.5009C54.0085 17.0903 52.865 15.9467 51.4543 15.9467C50.0437 15.9467 48.9001 17.0903 48.9001 18.5009C48.9001 19.9115 50.0437 21.0551 51.4543 21.0551Z" fill="#6C63FF"/>
<path opacity="0.25" d="M40.1308 23.439C41.5414 23.439 42.685 22.2954 42.685 20.8848C42.685 19.4742 41.5414 18.3306 40.1308 18.3306C38.7201 18.3306 37.5766 19.4742 37.5766 20.8848C37.5766 22.2954 38.7201 23.439 40.1308 23.439Z" fill="#6C63FF"/>
<path d="M71.1159 33.1557L31.4845 32.8717C30.2106 32.8626 29.1677 33.8906 29.1586 35.1645C29.1494 36.4384 30.1775 37.4813 31.4514 37.4904L71.0828 37.7744C72.3566 37.7836 73.3995 36.7555 73.4087 35.4816C73.4178 34.2078 72.3897 33.1649 71.1159 33.1557Z" fill="#F2F2F2"/>
<path d="M25.564 35.7419C26.14 35.7419 26.6069 35.275 26.6069 34.699C26.6069 34.123 26.14 33.656 25.564 33.656C24.9879 33.656 24.521 34.123 24.521 34.699C24.521 35.275 24.9879 35.7419 25.564 35.7419Z" fill="#F2F2F2"/>
<path d="M71.1159 7.52873L31.4845 7.24469C30.2106 7.23556 29.1677 8.26362 29.1586 9.53749C29.1494 10.8114 30.1775 11.8543 31.4514 11.8634L71.0828 12.1474C72.3566 12.1566 73.3995 11.1285 73.4087 9.85463C73.4178 8.58077 72.3897 7.53786 71.1159 7.52873Z" fill="#F2F2F2"/>
<path d="M25.564 10.1149C26.14 10.1149 26.6069 9.64796 26.6069 9.07195C26.6069 8.49594 26.14 8.02899 25.564 8.02899C24.9879 8.02899 24.521 8.49594 24.521 9.07195C24.521 9.64796 24.9879 10.1149 25.564 10.1149Z" fill="#F2F2F2"/>
<path d="M21.4722 92.5413H14.9813C14.4357 92.5413 13.9919 92.0974 13.9919 91.5519V85.061C13.9919 84.5154 14.4357 84.0715 14.9813 84.0715H21.4722C22.0178 84.0715 22.4617 84.5154 22.4617 85.061V91.5519C22.4617 92.0974 22.0178 92.5413 21.4722 92.5413Z" fill="white"/>
<path d="M21.4722 92.5413H14.9813C14.4357 92.5413 13.9919 92.0974 13.9919 91.5519V85.061C13.9919 84.5154 14.4357 84.0715 14.9813 84.0715H21.4722C22.0178 84.0715 22.4617 84.5154 22.4617 85.061V91.5519C22.4617 92.0974 22.0178 92.5413 21.4722 92.5413ZM14.9813 84.2298C14.5223 84.2298 14.1502 84.602 14.1502 85.061V91.5519C14.1502 92.0109 14.5223 92.383 14.9813 92.383H19.6072C21.0962 92.383 22.3034 91.1759 22.3034 89.6868V85.061C22.3034 84.602 21.9312 84.2298 21.4722 84.2298H14.9813Z" fill="#E6E6E6"/>
<path d="M69.0953 85.9607C69.4031 85.98 69.5732 85.5975 69.3403 85.3746L69.3172 85.2825C69.3202 85.2752 69.3233 85.2678 69.3264 85.2604C69.6376 84.5182 70.6926 84.5233 71.0013 85.2667C71.2752 85.9264 71.624 86.5873 71.7098 87.2849C71.7483 87.5929 71.731 87.9066 71.6627 88.2087C72.3046 86.8066 72.6423 85.2756 72.6423 83.7358C72.6423 83.349 72.6212 82.9621 72.5779 82.5762C72.5423 82.2606 72.4932 81.9469 72.4297 81.636C72.0861 79.9558 71.3422 78.3554 70.2692 77.0187C69.7534 76.7368 69.3233 76.296 69.0634 75.7677C68.9701 75.5772 68.8969 75.3722 68.8623 75.1634C68.921 75.1711 69.0836 74.2771 69.0394 74.2222C69.1212 74.0981 69.2676 74.0364 69.3569 73.9152C69.8013 73.3128 70.4135 73.418 70.7331 74.2366C71.4158 74.5812 71.4224 75.1527 71.0035 75.7023C70.737 76.0519 70.7004 76.5251 70.4665 76.8994C70.4906 76.9302 70.5156 76.96 70.5397 76.9908C70.9808 77.5567 71.3624 78.1649 71.6841 78.8039C71.5932 78.0938 71.7274 77.2382 71.9562 76.6867C72.2167 76.0584 72.7049 75.5292 73.1348 74.986C73.6512 74.3335 74.7102 74.6182 74.8012 75.4454C74.802 75.4534 74.8029 75.4614 74.8037 75.4694C74.7399 75.5054 74.6773 75.5437 74.6162 75.5841C74.2676 75.8146 74.3881 76.355 74.8011 76.4187L74.8105 76.4202C74.7874 76.6502 74.7479 76.8782 74.6902 77.1025C75.2417 79.2354 74.051 80.0123 72.3508 80.0472C72.3132 80.0664 72.2767 80.0857 72.2391 80.104C72.4114 80.589 72.549 81.0865 72.651 81.5908C72.7424 82.0363 72.8059 82.4867 72.8415 82.939C72.8858 83.5097 72.882 84.0832 72.8338 84.6529L72.8367 84.6327C72.9589 84.0053 73.2996 83.4192 73.7943 83.0131C74.5311 82.4078 75.5722 82.1849 76.3671 81.6984C76.7498 81.4641 77.2402 81.7668 77.1734 82.2105L77.1701 82.2317C77.0517 82.2798 76.9363 82.3356 76.8246 82.3982C76.7608 82.4342 76.6982 82.4725 76.6371 82.5129C76.2885 82.7434 76.409 83.2838 76.822 83.3475L76.8314 83.349C76.8381 83.3499 76.8439 83.3509 76.8506 83.3519C76.6476 83.834 76.3647 84.2815 76.0105 84.6674C75.6656 86.5294 74.1844 86.706 72.6 86.1638H72.599C72.4258 86.9183 72.1727 87.6554 71.8475 88.3579H69.1626C69.1529 88.3281 69.1443 88.2973 69.1356 88.2674C69.3839 88.2828 69.6341 88.2684 69.8785 88.2232C69.6793 87.9788 69.4801 87.7324 69.2809 87.488C69.2761 87.4831 69.2723 87.4783 69.2684 87.4735C69.1674 87.3484 69.0654 87.2243 68.9643 87.0992L68.9643 87.099C68.9579 86.715 69.004 86.3322 69.0952 85.9607L69.0953 85.9607Z" fill="#F2F2F2"/>
<path d="M15.3296 85.0757C14.7923 84.7108 14.7147 83.9203 15.1728 83.4599L13.1099 78.5641L14.3238 77.6605L16.7314 83.4933C17.0511 83.8522 17.0976 84.395 16.8116 84.8074C16.4764 85.2907 15.8129 85.4108 15.3296 85.0757H15.3296Z" fill="#FFB6B6"/>
<path d="M13.8109 67.2561H13.8109C12.9293 67.1826 12.1348 67.7873 11.9708 68.6566L10.7695 75.0235L14.4943 82.6222L16.4312 81.7282L14.0473 74.5765L15.3426 69.3956C15.6008 68.3627 14.8718 67.3445 13.8109 67.2561V67.2561Z" fill="#6C63FF"/>
<path d="M15.5334 86.4727C15.4102 86.4727 15.3099 86.573 15.3099 86.6962V86.8452C15.3099 86.9684 15.4102 87.0687 15.5334 87.0687H20.7482C20.8715 87.0687 20.9717 86.9684 20.9717 86.8452V86.6962C20.9717 86.573 20.8715 86.4727 20.7482 86.4727H15.5334Z" fill="#E6E6E6"/>
<path d="M15.5334 88.1117C15.4102 88.1117 15.3099 88.2119 15.3099 88.3352V88.4842C15.3099 88.6074 15.4102 88.7077 15.5334 88.7077H20.7482C20.8715 88.7077 20.9717 88.6074 20.9717 88.4842V88.3352C20.9717 88.2119 20.8715 88.1117 20.7482 88.1117H15.5334Z" fill="#E6E6E6"/>
<path d="M15.5334 89.7506C15.4102 89.7506 15.3099 89.8509 15.3099 89.9741V90.1231C15.3099 90.2463 15.4102 90.3466 15.5334 90.3466H20.7482C20.8715 90.3466 20.9717 90.2463 20.9717 90.1231V89.9741C20.9717 89.8509 20.8715 89.7506 20.7482 89.7506H15.5334Z" fill="#E6E6E6"/>
</g>
<defs>
<clipPath id="clip0_1_1458">
<rect width="84.9138" height="102.374" fill="white" transform="translate(0 0.812805)"/>
</clipPath>
</defs>
</svg>
